<svg width="300" height="57" viewBox="0 0 300 57" fill="none" xmlns="http://www.w3.org/2000/svg">
<g clip-path="url(#clip0_3116_30)">
<path d="M102.08 5.63768C102.08 8.79479 99.5239 11.2754 96.442 11.2754C93.3601 11.2754 90.8043 8.71962 90.8043 5.63768C90.8043 2.48058 93.3601 0 96.442 0C99.5239 0 102.08 2.55575 102.08 5.63768Z" fill="white"/>
<path d="M89.0001 16.3867L81.7087 29.9172C83.588 33.3749 85.2417 36.532 86.0686 38.1106L92.9841 26.309L93.0593 26.3842L92.6083 56.2264H102.004L102.155 16.3867H89.0001Z" fill="white"/>
<path d="M71.3356 5.63768C71.3356 8.79479 68.7798 11.2754 65.6979 11.2754C62.5408 11.2754 60.0602 8.71962 60.0602 5.63768C60.0602 2.48058 62.6159 0 65.6979 0C68.855 0 71.3356 2.55575 71.3356 5.63768Z" fill="#ED1D24"/>
<path d="M85.3922 39.2381C85.6177 38.8623 73.1396 16.3115 73.1396 16.3115H60.0602V56.1512H69.306V26.309L79.6793 44.6503H82.2351L85.3922 39.2381Z" fill="#ED1D24"/>
<path d="M0.136428 16.1589L0.0057373 55.9985L10.1536 56.0318L10.2843 16.1922L0.136428 16.1589Z" fill="white"/>
<path d="M43.5229 56.0759L28.038 31.7963L27.8877 31.8715L28.1132 56.0759L18.1157 56.0008L18.2661 16.1611H27.2864L42.9967 41.2676L43.0719 41.1925L42.696 16.2363H52.6935L52.5432 56.1511L43.5229 56.0759Z" fill="white"/>
<path d="M109.446 56.076V16.3115H131.17V19.9196H113.43V34.2018H130.569V37.8099H113.43V52.4679H131.17V56.076H109.446Z" fill="white"/>
<path d="M161.388 37.5844C159.133 39.8395 156.352 41.0422 152.969 41.2677L164.169 56.076H159.133L145.678 38.1106H149.962C151.766 38.0354 153.195 37.8851 154.172 37.5092C158.532 36.1562 160.712 33.3749 160.712 29.0903C160.712 25.5573 159.283 23.0016 156.352 21.4982C155.224 20.8968 153.946 20.4458 152.593 20.2203C151.616 20.07 150.263 19.9948 148.609 19.9948H141.694V56.076H137.71V16.3115H147.783C148.685 16.3115 149.511 16.3115 150.188 16.3867C151.09 16.4619 151.992 16.537 152.744 16.6122C154.698 16.8377 156.277 17.2887 157.554 17.8901C162.29 20.1451 164.62 23.9036 164.62 29.2406C164.771 32.4729 163.643 35.3293 161.388 37.5844Z" fill="white"/>
<path d="M211.451 37.8102C211 43.2223 208.745 47.7325 204.686 51.3406C200.626 54.9487 195.891 56.7528 190.479 56.7528C184.766 56.7528 179.805 54.7984 175.595 50.8144C171.31 46.7553 169.206 41.8693 169.206 36.2316C169.206 30.5188 171.31 25.6328 175.595 21.6488C179.729 17.6648 184.691 15.7104 190.479 15.7104C197.018 15.7104 202.43 18.1159 206.715 23.0019C207.843 24.2797 208.745 25.6328 209.271 26.9858H204.686C203.332 24.6556 201.303 22.7763 198.597 21.3481C196.041 19.9951 193.335 19.3186 190.554 19.3186C185.818 19.3186 181.759 20.9723 178.376 24.2797C174.919 27.5872 173.265 31.6463 173.265 36.3068C173.265 41.0424 174.994 45.1016 178.451 48.3339C181.909 51.5661 185.968 53.1447 190.704 53.1447C194.312 53.1447 197.62 52.0171 200.702 49.8372C203.859 47.5822 205.888 44.7257 206.79 41.3431H184.615V37.735H211.451V37.8102Z" fill="white"/>
<path d="M217.464 56.076V16.3115H239.188V19.9196H221.448V34.2018H238.587V37.8099H221.448V52.4679H239.188V56.076H217.464Z" fill="white"/>
<path d="M269.782 37.5844C267.527 39.8395 264.746 41.0422 261.363 41.2677L272.563 56.076H267.602L254.147 38.1106H258.432C260.236 38.0354 261.664 37.8851 262.641 37.5092C267.001 36.1562 269.181 33.3749 269.181 29.0903C269.181 25.5573 267.752 23.0016 264.821 21.4982C263.693 20.8968 262.415 20.4458 261.062 20.2203C260.085 20.07 258.732 19.9948 257.078 19.9948H250.163V56.076H246.179V16.3115H256.327C257.229 16.3115 258.056 16.3115 258.732 16.3867C259.634 16.4619 260.536 16.537 261.288 16.6122C263.242 16.8377 264.821 17.2887 266.099 17.8901C270.834 20.1451 273.165 23.9036 273.165 29.2406C273.165 32.4729 272.037 35.3293 269.782 37.5844Z" fill="white"/>
<path d="M296.467 53.3702C294.137 55.6252 291.356 56.7528 288.048 56.7528C284.515 56.7528 281.584 55.7004 279.328 53.5205C277.073 51.3406 275.871 48.4842 275.796 44.9512H279.78C280.005 50.4386 282.786 53.1446 288.048 53.1446C290.303 53.1446 292.107 52.393 293.686 50.8896C295.264 49.3862 296.016 47.507 296.016 45.2519C296.016 42.8465 295.114 40.9673 293.235 39.4639C292.483 38.8625 291.506 38.3363 290.378 37.8853C289.551 37.5095 288.424 37.1336 287.146 36.7578C285.492 36.3068 284.139 35.7806 283.162 35.4047C281.809 34.8786 280.757 34.202 279.855 33.5255C277.825 31.8718 276.848 29.4664 276.848 26.3093C276.848 23.2273 277.975 20.6716 280.155 18.642C282.335 16.6876 284.966 15.6353 288.048 15.6353C291.13 15.6353 293.686 16.6876 295.866 18.7172C298.046 20.8219 299.098 23.3777 299.098 26.4596H295.114C295.114 24.5052 294.437 22.8515 293.084 21.4233C291.731 19.9951 290.078 19.2434 288.123 19.2434C286.094 19.2434 284.44 19.9199 283.012 21.1978C281.584 22.4756 280.907 24.1294 280.907 26.1589C280.907 28.4892 281.959 30.2181 284.139 31.4208C284.891 31.8718 285.943 32.2476 287.221 32.6986L290.378 33.6758C293.385 34.5779 295.715 35.9309 297.369 37.735C299.173 39.6894 300.075 42.17 300.075 45.1767C300 48.409 298.797 51.1151 296.467 53.3702Z" fill="white"/>
</g>
<defs>
<clipPath id="clip0_3116_30">
<rect width="300" height="56.7527" fill="white"/>
</clipPath>
</defs>
</svg>
