<?xml version="1.0" encoding="utf-8"?>
<!-- Generator: Adobe Illustrator 25.3.1, SVG Export Plug-In . SVG Version: 6.00 Build 0)  -->
<svg version="1.1" id="_x30_6c42c9d-6d9c-45ee-a61b-17902c1dca73"
	 xmlns="http://www.w3.org/2000/svg" xmlns:xlink="http://www.w3.org/1999/xlink" x="0px" y="0px" width="631px" height="466.1px"
	 viewBox="0 0 631 466.1" enable-background="new 0 0 631 466.1" xml:space="preserve">
<path opacity="0.1" fill="#EE8127" enable-background="new    " d="M621,310.9c-14.6,30.2-44.4,50.4-75.1,63.7
	c-41.5,17.9-87.1,25-132.1,22c-7.9-0.5-15.8-1.4-23.6-2.5c-27.2-4-53.8-11.7-78.9-23c-7.2-3.3-14.4-6.8-21.3-10.7
	c-11.6-6.4-22.7-13.7-33.3-21.8c-2.7-2-5.3-4.1-7.9-6.2c-1.8-1.5-3.6-3-5.4-4.5c-3.8-3.1-7.7-6-12.1-8.2c-1.3-0.7-2.7-1.3-4-1.8
	c-13.8-5.3-29.7-3.3-44.1,0.8c-10.9,3.1-21.6,7.4-32.5,10.4c-4.9,1.4-9.8,2.4-14.8,3.2c-11.2,1.4-22.5,0.4-33.3-2.9l-0.9-0.3
	c-1.5-0.5-3.1-1-4.6-1.6l-0.9-0.4c-1.5-0.6-2.9-1.2-4.3-1.8l-0.9-0.4c-1.5-0.7-2.9-1.4-4.3-2.2c-0.5-0.3-1-0.6-1.5-0.8
	c-8-4.5-15.3-10.1-21.6-16.8c-0.2-0.2-0.4-0.4-0.6-0.6c-0.9-0.9-1.7-1.9-2.6-2.9c-0.3-0.4-0.6-0.7-0.9-1.1c-1-1.2-1.9-2.4-2.9-3.7
	c-0.1-0.2-0.3-0.4-0.4-0.6c-3.8-5.2-6.9-10.8-9.3-16.8c-0.1-0.2-0.1-0.4-0.2-0.6c-0.7-1.9-1.4-3.8-2-5.8c-0.2-0.8-0.5-1.7-0.7-2.5
	c-0.1-0.2-0.1-0.5-0.2-0.7c-3-12-3.4-24.4-3.4-36.8c0-1.4,0-2.9,0-4.3c0.1-20,0.4-40.4,3.3-60.1c0-0.1,0-0.3,0.1-0.4
	c1-6.6,2.3-13.2,4-19.7c1.8-6.8,4-13.5,6.8-20c6.8-16,16.7-30.5,27.6-44c27.6-33.9,63.9-62.4,106.3-73
	c45.7-11.5,96.5-0.5,133.3,28.9c11.2,8.9,21.3,19.5,34,26.4c11,6,23.9,8.4,35.7,3.7c9.7-3.9,16.1-5.8,27-5.2
	c22.7,1.3,45,6,66.3,13.9c0.9,0.3,1.7,0.6,2.6,1c55.5,21.2,103.2,63.4,127.9,117.6c0.7,1.4,1.3,2.9,1.9,4.3
	C632,236.8,637.3,277.2,621,310.9z"/>
	<ellipse opacity="0.1" fill="#EE8127" enable-background="new    " cx="66.3" cy="408.7" rx="48.6" ry="7.8"/>
	<ellipse opacity="0.1" fill="#EE8127" enable-background="new    " cx="502.5" cy="450.5" rx="86.2" ry="8.4"/>
	<linearGradient id="SVGID_1_" gradientUnits="userSpaceOnUse" x1="1116.4762" y1="-106.1873" x2="1116.4762" y2="432.1427" gradientTransform="matrix(0.5508 0 0 -0.5508 -289.2735 304.617)">
	<stop  offset="0" style="stop-color:#808080;stop-opacity:0.25"/>
		<stop  offset="0.54" style="stop-color:#808080;stop-opacity:0.12"/>
		<stop  offset="1" style="stop-color:#808080;stop-opacity:0.1"/>
</linearGradient>
	<path fill="url(#SVGID_1_)" d="M70.9,66.6h509.7c3.8,0,6.9,3.1,6.9,6.9v282.8c0,3.8-3.1,6.9-6.9,6.9H70.9c-3.8,0-6.9-3.1-6.9-6.9
	V73.5C64,69.7,67.1,66.6,70.9,66.6z"/>
	<path fill="#FFFFFF" d="M71.7,70.8h508.1c3.8,0,6.9,3.1,6.9,6.9v277.6c0,3.8-3.1,6.9-6.9,6.9H71.7c-3.8,0-6.9-3.1-6.9-6.9V77.6
	C64.8,73.8,67.9,70.8,71.7,70.8z"/>
	<path fill="#FFFFFF" d="M71.7,70.8h508.1c3.8,0,6.9,3.1,6.9,6.9v277.6c0,3.8-3.1,6.9-6.9,6.9H71.7c-3.8,0-6.9-3.1-6.9-6.9V77.6
	C64.8,73.8,67.9,70.8,71.7,70.8z"/>
	<path opacity="4.000000e-02" fill="#FFFFFF" enable-background="new    " d="M71.7,70.8h508.1c3.8,0,6.9,3.1,6.9,6.9v277.6
	c0,3.8-3.1,6.9-6.9,6.9H71.7c-3.8,0-6.9-3.1-6.9-6.9V77.6C64.8,73.8,67.9,70.8,71.7,70.8z"/>
	<path fill="#5A5773" d="M584,67.4H67.5c-1.5,0-2.6,1.2-2.6,2.6v11.2h521.8V70.1C586.6,68.6,585.5,67.4,584,67.4z"/>
	<g id="_x36_c975d28-8d47-4ade-9154-b3b78f637b65">
	<circle fill="#FFFFFF" cx="75.2" cy="74.3" r="3.6"/>
		<circle fill="#FFFFFF" cx="84.9" cy="74.3" r="3.6"/>
		<circle fill="#FFFFFF" cx="94.5" cy="74.3" r="3.6"/>
</g>
	<rect x="107.8" y="107.3" opacity="0.2" fill="#EE8127" enable-background="new    " width="140" height="11.9"/>
	<rect x="107.8" y="155" opacity="0.1" fill="#5A5773" enable-background="new    " width="435.9" height="182.8"/>
	<path opacity="0.1" enable-background="new    " d="M363,166.9h-7.5v-14.5c0-16.4-13-30-29.4-30.2c-16.5-0.2-30,13.1-30.2,29.6
	c0,0.1,0,0.1,0,0.2v14.9h-7.4c-6.9,0-12.4,5.6-12.4,12.4v59.6c0,6.9,5.6,12.4,12.4,12.4H363c6.9,0,12.4-5.6,12.4-12.4v-59.6
	C375.4,172.5,369.9,166.9,363,166.9z M330.1,205.6V227c0,2.3-1.8,4.3-4.1,4.5c-2.4,0.1-4.4-1.7-4.6-4.1c0-0.1,0-0.1,0-0.2v-21.5
	c-4.9-2.4-7-8.3-4.6-13.3c2.4-4.9,8.3-7,13.3-4.6c4.9,2.4,7,8.3,4.6,13.3C333.7,203.1,332.1,204.7,330.1,205.6L330.1,205.6z
	 M346.9,166.9h-42.2V152c0-11.7,9.5-21.1,21.1-21.1s21.1,9.5,21.1,21.1L346.9,166.9z"/>
	<path fill="#EE8127" d="M363,165.8h-7.5v-14.5c0-16.4-13-30-29.4-30.2c-16.5-0.2-30,13.1-30.2,29.6c0,0.1,0,0.1,0,0.2v14.9h-7.4
	c-6.9,0-12.4,5.6-12.4,12.4v59.6c0,6.9,5.6,12.4,12.4,12.4H363c6.9,0,12.4-5.6,12.4-12.4v-59.6C375.4,171.4,369.9,165.8,363,165.8z
	 M330.1,204.5v21.3c0,2.3-1.8,4.3-4.1,4.5c-2.4,0.1-4.4-1.7-4.6-4.1c0-0.1,0-0.1,0-0.2v-21.5c-4.9-2.4-7-8.3-4.6-13.3
	c2.4-4.9,8.3-7,13.3-4.6c4.9,2.4,7,8.3,4.6,13.3C333.7,201.9,332.1,203.6,330.1,204.5L330.1,204.5z M346.9,165.8h-42.2v-14.9
	c0-11.7,9.5-21.1,21.1-21.1s21.1,9.5,21.1,21.1L346.9,165.8z"/>
	<rect x="499.6" y="137.4" opacity="0.1" fill="#5A5773" enable-background="new    " width="44.1" height="10.4"/>
	<linearGradient id="SVGID_2_" gradientUnits="userSpaceOnUse" x1="1469.5121" y1="-314.7323" x2="1469.5121" y2="250.6127" gradientTransform="matrix(0.5508 0 0 -0.5508 -304.1291 282.5623)">
	<stop  offset="0" style="stop-color:#808080;stop-opacity:0.25"/>
		<stop  offset="0.54" style="stop-color:#808080;stop-opacity:0.12"/>
		<stop  offset="1" style="stop-color:#808080;stop-opacity:0.1"/>
</linearGradient>
	<path fill="url(#SVGID_2_)" d="M558.7,453c-0.3-1.5-0.8-2.9-1.5-4.2l-6.6-9.9h0c0,0-1-5,0-7.4c1-2.4-3.7-8.4-3.7-8.4
	s-0.6-1.5,0.9-3.4s-0.9-7.3-0.9-7.3s-1.2-11.3-1.3-13c-0.1-1.7-1-11.3-1-11.3l-2.2-20.3l-3.9-53.9l-0.1-1c0.5-0.2,0.7-0.4,0.7-0.4
	l-0.8-29.8l0.7-0.6c5.9-5.4,19.6-17.7,19.4-18c-0.1-0.3-1.7-20.7-1.8-25.8c-0.2-3.6-0.9-7.2-2.3-10.6c-0.3-0.7-1.3-5.1-1.7-7
	c-0.1-0.5-0.2-0.8-0.2-0.8s-4-7.6-3.7-11.1c0.3-3.5,1-6.1-7.5-7.3c0,0-7.2-1.1-11.4-4c-2.5-1.7-5.3-3.1-8.2-4.1c0,0-2.4-4.4-4.1-2.9
	c-0.7-1.6-1.2-3.2-1.6-4.9l0-0.3c3.2-2.2,5.4-5.5,6.4-9.2c0.1-0.2,0.1-0.4,0.1-0.6c0.2,0.1,0.3,0.1,0.5,0.1c1.4,0,2.3-1.6,3.7-2.1
	c0.6-0.2,1.2-0.2,1.7-0.7c0.3-0.3,0.4-0.8,0.4-1.2c0-0.2,0-0.3,0-0.5c0-0.1,0-0.1,0-0.2v0.1c-0.4-2-1.9-3.8-1.8-5.8
	c0.2-1.9,1.9-3.6,1.7-5.5c0-0.1,0-0.3,0-0.4v0.1c-0.2-0.7-0.6-1.4-1.1-1.9c-0.6-0.8-1.4-1.5-2.3-1.9c-0.8-0.3-1.7-0.4-2.4-0.8
	c-2.1-1.1-2.1-4.1-3.3-6.2c-1.1-1.7-3.1-2.7-5.1-2.5c-1.6,0.2-3,1-4.5,1.3c-2.1,0.4-4.3-0.3-6.3-1.1s-4-1.7-6.2-1.7
	c-2.2,0-4.5,1.1-5.1,3.1c-0.3,1.1-0.2,2.3-0.4,3.4c-0.5,2-2.2,3.4-4,4.4c-1.1,0.6-2.4,1.3-2.8,2.5c0,0,0-0.1,0-0.1
	c0,0.1,0,0.2-0.1,0.3c0,0.1,0,0.2,0,0.4c0,0.8,0.4,1.5,0.7,2.3c0.5,1.4,0.5,3,0,4.4c-0.4,1-1.1,2-1.5,3c-0.2,0.5-0.3,1-0.4,1.5v-0.1
	c0,0.2,0,0.5,0,0.7c0,0.8,0.2,1.6,0.6,2.3c0.5,1,1.4,1.7,2.5,2.1c1.1,0.3,1.8-0.8,3-0.6c0.2,0.1,0.4,0.1,0.6,0.2
	c0,0.2,0.1,0.5,0.1,0.7c0.7,3.7,2.7,7.1,5.6,9.5c0,0.1,0,0.3,0.1,0.4l0,0c0.4,2.2,0.5,4.4,0.5,6.6c0,0-1.7-2.5-4.1,2.4
	c0,0-6.2,3.6-8.4,4c-2.1,0.4-9.7,3.1-9.7,3.1c-1.1,0.8-2.5,1.3-3.9,1.3c-2.4,0-4.3,5.2-4.1,8s-0.2,4.9-2.4,5c-2.2,0.1-1,4.6-1,4.7
	l-0.2,1c-0.4,2-1.4,6.2-1.7,6.9c-1.4,3.4-2.2,6.9-2.4,10.6c-0.2,5.1-1.7,25.5-1.8,25.8c-0.1,0.2,9.2,8.8,15.8,14.7l1,0.9l-3,28.2
	c0.2,2.2,1.3,4.2,3.1,5.5c0,0.3,0,0.7,0,1c-0.1,3.3-0.4,7.3-0.9,8.4c-0.9,1.9-0.7,11.8-0.7,11.8s-0.9,20.2-2.1,22.4s-1.4,6.8-1,7.7
	S468,390,468,390l-1.2,10.9c0,0,0.3,10.4-0.7,10.6c-1,0.2-1.6,7.4-1.6,7.4s-3.7,5.1-2.1,6.9c1.6,1.8-0.2,2.7-0.4,3.1
	c-0.2,0.5-3.5,2.2-1.1,8.7c0,0.1,0,0.1,0.1,0.2c-2.3,3.2-9.5,13.4-9.1,14.9c0.3,1,1,1.8,1.9,2.3c1.7,1,4.6,1.5,9.3,0
	c7.7-2.5,7.2-4.3,7.2-4.3c0.1-1.7,1.5-3.1,3.2-3.1c3.2-0.2,5.6-3.2,5.6-3.2l-0.4-1.4l-0.5-1.9c0.1-0.6,0.5-1.5,2.2-2
	c2.7-0.8,2-5.9,2-5.9s-0.2-5.3,0.9-6c1.2-0.7,0.7-9.5,0.7-9.5s1.3-6.4,3.1-10.6s4.1-29.7,4.1-29.7s1.5-12.5,2.9-16.1
	c1.4-3.6,2.7-13.6,2.7-13.6s8.6-16.6,8.7-20.3c0,0,1.1-3.5,2.2,0.3s4.2,12.9,4.2,12.9l3,11.2l3.6,16.7l2.3,14.1c0,0-0.4,5.3,0.6,7.2
	c0.9,1.9,2.2,6.1,1.5,6.9s1.4,4.6,2,5.4c0.6,0.8,0,17.9,0,17.9s2.7,14.5,6.5,17.1c0.3,0.2,0.6,0.3,0.8,0.4c-0.1,1.6-0.1,3.7,0,4.8
	c0,0.2,0,0.5,0.1,0.7c0.3,0.5,4.3,3.6,5.1,3.6c0.8,0,3.7,2,3.8,3c0.1,1,8.5,5.1,9.7,5.3c1.2,0.1,6.9,1.2,7.7-0.5
	C558.7,454,558.8,453.5,558.7,453z M538.2,245l0.6,0.5c0,0,0.6,4.8,1,6.2c0.4,1.4-0.1,4.2-0.1,4.2c0,1,0.2,2.1,0.6,3
	c0.5,1-1,3.3-1,3.3h-1.4l-0.4-17.8L538.2,245z M496.7,191.7v-0.1C496.7,191.6,496.7,191.7,496.7,191.7L496.7,191.7z M475.3,260.4
	c-0.2-0.5-0.2-1-0.1-1.5c0.1-0.3,0.2-0.5,0.3-0.8c0.2-0.7,0.3-1.5,0.3-2.2c0,0,0,0,0,0c0-0.3-0.5-2.8-0.1-4.2s1-6.2,1-6.2l0.4-0.3
	l0.9-0.8c0,0,0-0.3,0.1-0.8c0.2,4.2,0.3,8.8,0.1,9c-0.5,0.5-2.1,5-1.7,5.1c0.1,0.1,0,1.9-0.4,4.3
	C475.8,261.5,475.6,260.9,475.3,260.4z"/>
	<path fill="#C37098" d="M519.7,196.1v6.9l-14.1,7.1c0,0-14-8.4-10.5-11.8c2.2-2.1,1.8-8,1.2-12l0,0c-0.3-2.3-0.7-4-0.7-4
	s25.1-7.2,21.3-1.7c-1.3,1.8-1.4,4.2-0.9,6.5C516.8,191.6,519.7,196.1,519.7,196.1z"/>
	<path fill="#3F3D56" d="M481.2,263.1l-1.8,22.3c0,0-2.7-2.5-6.2-5.7c-6.5-5.9-15.8-14.4-15.7-14.7c0.2-0.3,1.7-20.6,1.8-25.7
	c0.2-3.6,0.9-7.2,2.3-10.5c0.3-0.7,1.3-4.9,1.7-6.8c0.1-0.6,0.2-1,0.2-1l3-1.2c0,0,12.7,14.1,12.7,14.4s-0.9,11.1-0.9,11.1l-0.9,0.8
	l-0.4,0.3c0,0-0.6,4.7-1,6.2c-0.4,1.4,0,3.9,0.1,4.2l0,0c0,0.7-0.1,1.5-0.3,2.2c-0.1,0.3-0.2,0.5-0.3,0.8c-0.2,0.5-0.1,1,0.1,1.5
	c0.2,0.6,0.6,1.2,0.9,1.8L481.2,263.1z"/>
	<path fill="#3F3D56" d="M558,265.1c0.1,0.3-13.4,12.6-19.2,17.9l-2.7,2.4l-1.8-22.3h4.7c0,0,1.6-2.2,1-3.3c-0.4-1-0.6-2-0.6-3
	c0,0,0.5-2.8,0.1-4.2c-0.4-1.4-1-6.2-1-6.2l-0.6-0.5l-0.7-0.6c0,0-0.9-10.9-0.9-11.1s12.7-14.4,12.7-14.4l3,1.2c0,0,0.1,0.3,0.2,0.8
	c0.4,1.9,1.4,6.3,1.7,7c1.4,3.3,2.2,6.9,2.3,10.5C556.3,244.5,557.8,264.7,558,265.1z"/>
	<path fill="#3F3D56" d="M558,454.5c-0.8,1.6-6.5,0.6-7.7,0.5c-1.2-0.1-9.5-4.3-9.6-5.2c-0.1-1-3-3-3.8-3s-4.7-3.1-5.1-3.6
	c-0.1-0.2-0.1-0.5-0.1-0.7c-0.1-1.9,0.1-6.8,0.1-6.8l16.7,0.9l8.1,12.2c0.7,1.3,1.2,2.7,1.5,4.2C558.3,453.5,558.2,454.1,558,454.5z
	"/>
	<path opacity="0.1" enable-background="new    " d="M558,454.5c-0.8,1.6-6.5,0.6-7.7,0.5c-1.2-0.1-9.5-4.3-9.6-5.2c-0.1-1-3-3-3.8-3
	s-4.7-3.1-5.1-3.6c-0.1-0.2-0.1-0.5-0.1-0.7c-0.1-1.9,0.1-6.8,0.1-6.8l16.7,0.9l8.1,12.2c0.7,1.3,1.2,2.7,1.5,4.2
	C558.3,453.5,558.2,454.1,558,454.5z"/>
	<path opacity="0.1" enable-background="new    " d="M558,454.5c-0.8,1.6-6.5,0.6-7.7,0.5c-1.2-0.1-9.5-4.3-9.6-5.2c-0.1-1-3-3-3.8-3
	s-4.7-3.1-5.1-3.6c-0.1-0.2-0.1-0.5-0.1-0.7l5.4,3.4c0,0,3.4,2.2,4.4,3.5c0.9,1.3,8.2,4,8.8,4.1c0.4,0,5.2-0.9,7.8-0.5
	C558.3,453.5,558.2,454.1,558,454.5z"/>
	<path fill="#3F3D56" d="M479.3,444.5c0,0-2.4,2.9-5.5,3.2c-1.7,0-3.1,1.4-3.2,3.1c0,0,0.6,1.8-7.1,4.3c-4.6,1.5-7.5,1-9.2,0
	c-0.9-0.5-1.6-1.3-1.9-2.3c-0.5-1.8,9.7-15.8,9.7-15.8l9.3-0.6l6.6,3l1,3.8L479.3,444.5z"/>
	<path opacity="0.1" enable-background="new    " d="M479.3,444.5c0,0-2.4,2.9-5.5,3.2c-1.7,0-3.1,1.4-3.2,3.1c0,0,0.6,1.8-7.1,4.3
	c-4.6,1.5-7.5,1-9.2,0c-0.9-0.5-1.6-1.3-1.9-2.3c-0.5-1.8,9.7-15.8,9.7-15.8l9.3-0.6l6.6,3l1,3.8L479.3,444.5z"/>
	<path fill="none" d="M479.3,444.5c0,0-2.4,2.9-5.5,3.2c-1.7,0-3.1,1.4-3.2,3.1c0,0,0.6,1.8-7.1,4.3c-4.6,1.5-7.5,1-9.2,0
	c4.3-0.5,13.9-3.2,14.9-4.1c1.2-1.2,2.6-4.3,3.6-4.4c0.7,0,4.1-2.1,6.2-3.4L479.3,444.5z"/>
	<path opacity="0.1" enable-background="new    " d="M479.3,444.5c0,0-2.4,2.9-5.5,3.2c-1.7,0-3.1,1.4-3.2,3.1c0,0,0.6,1.8-7.1,4.3
	c-4.6,1.5-7.5,1-9.2,0c4.3-0.5,13.9-3.2,14.9-4.1c1.2-1.2,2.6-4.3,3.6-4.4c0.7,0,4.1-2.1,6.2-3.4L479.3,444.5z"/>
	<path fill="#3F3D56" d="M550.2,431.7c-1,2.4,0,7.4,0,7.4s-15.4,0.8-19.2-1.7c-3.8-2.5-6.4-17-6.4-17s0.6-17,0-17.8
	c-0.6-0.8-2.6-4.6-2-5.4c0.7-0.8-0.6-5.1-1.5-6.9c-0.9-1.8-0.6-7.1-0.6-7.1l-2.3-14l-3.6-16.7l-3-11.1c0,0-3.1-9.1-4.2-12.9
	c-1.1-3.8-2.2-0.3-2.2-0.3c-0.1,3.7-8.6,20.2-8.6,20.2s-1.3,10-2.6,13.6s-2.9,16-2.9,16s-2.2,25.3-4,29.5
	c-1.8,4.3-3.1,10.6-3.1,10.6s0.5,8.7-0.7,9.4c-1.2,0.7-1,6-1,6s0.7,5.1-2,5.9s-2.2,2.5-2.2,2.5s-14.7,2.4-17.1-4
	c-2.4-6.4,0.9-8.2,1.1-8.6c0.2-0.5,2-1.3,0.4-3.1c-1.6-1.8,2.1-6.9,2.1-6.9s0.6-7.1,1.6-7.4c1-0.2,0.7-10.6,0.7-10.6l1.1-10.8
	c0,0,1.5-24.1,1.2-25.1c-0.3-0.9-0.1-5.5,1-7.7s2.1-22.3,2.1-22.3s-0.2-9.9,0.7-11.7c0.6-1,0.8-5,0.9-8.3c0.1-2.5,0.1-4.6,0.1-4.6
	l12.9-4.8l16.5-5.3l13.9,6.7l20.3,3.9l0.3,3.5l3.9,53.6l2.2,20.2c0,0,0.9,9.5,1,11.3c0.1,1.7,1.3,13,1.3,13s2.4,5.4,0.9,7.2
	c-1.5,1.8-0.9,3.3-0.9,3.3S551.3,429.3,550.2,431.7z"/>
	<path opacity="0.1" enable-background="new    " d="M516.9,180.5c-1.3,1.8-1.4,4.2-0.9,6.5c-6,4.2-14,3.9-19.6-0.7l0,0
	c-0.3-2.3-0.7-4-0.7-4S520.7,175,516.9,180.5z"/>
	<path fill="#C37098" d="M522.7,173.4c0,8.9-7.2,16.1-16.1,16.1s-16.1-7.2-16.1-16.1s7.2-16.1,16.1-16.1l0,0c8.9,0,16.1,7.1,16.1,16
	C522.7,173.3,522.7,173.4,522.7,173.4z"/>
	<polygon opacity="0.1" enable-background="new    " points="526.1,200.3 520.8,294.4 492.1,288.4 486.4,250.6 492,200 496.3,200.5
	503.8,201.5 511.2,201.9 519.2,201 "/>
	<polygon fill="#EE8127" points="526.1,200.9 520.8,295.1 492.1,289.1 486.4,251.3 492,200.7 496.3,201.2 503.8,202.1 511.2,202.6
	519.2,201.7 "/>
	<path fill="#3F3D56" d="M502.5,203.5l10.3,0.3l-2.9,4.1c0,0,0.2,8.2,1.6,10.6c1.4,2.4,1,38.8,1,38.8l-2.8,5.2l-4.7-5.9l0.1-48.1
	L502.5,203.5z"/>
	<path opacity="0.1" enable-background="new    " d="M502.5,203.5l10.3,0.3l-2.9,4.1c0,0,0.2,8.2,1.6,10.6c1.4,2.4,1,38.8,1,38.8
	l-2.8,5.2l-4.7-5.9l0.1-48.1L502.5,203.5z"/>
	<polygon opacity="0.1" enable-background="new    " points="518.7,192.8 509,203.5 514.6,209.2 523.7,200.3 "/>
	<polygon fill="#EE8127" points="518.7,192.1 509,202.8 514.6,208.5 523.7,199.6 "/>
	<polygon opacity="0.1" enable-background="new    " points="505,203 495.2,193.2 494.3,198.3 498.8,209.5 "/>
	<polygon fill="#EE8127" points="505.3,202.3 495.5,192.5 494.6,197.6 499.1,208.8 "/>
	<path opacity="0.1" enable-background="new    " d="M538.2,314.6c-4.7,2.2-9.7,3.7-14.9,4.3c-9.5,1.2-15.7-10.9-15.7-10.9l-3.6,4.7
	c-1.2,5-18.7,6.3-25.8,4.4c-1.5-0.4-2.9-1-4.1-1.9c0.1-2.5,0.1-4.6,0.1-4.6l12.9-4.8l16.5-5.3l13.9,6.7l20.3,3.9L538.2,314.6z"/>
	<path opacity="0.1" enable-background="new    " d="M526.1,200.9l-5.3,94.2l-28.7-6l-5.7-37.7l5.6-50.7l4.2,0.6
	c-0.1,1.8-0.3,3.7-0.6,5.5c-0.7,3.2,3.6,26.1,3.6,26.1s8.1,25.6,11.7,21.9c3.6-3.7,8.8-23.2,8.8-23.2c3.5-7.2,0.1-27.5-0.2-27.9
	c-0.2-0.6-0.3-1.2-0.3-1.8L526.1,200.9z"/>
	<path opacity="0.1" enable-background="new    " d="M538.5,273.8l0.2,9.2l-2.7,2.4l-1.8-22.3h4L538.5,273.8z"/>
	<path opacity="0.1" enable-background="new    " d="M476.1,256.8L476.1,256.8c0,0.7-0.1,1.5-0.3,2.2c0-0.2,0-0.3,0-0.3
	C475.6,258.6,475.8,257.8,476.1,256.8z"/>
	<path opacity="0.1" enable-background="new    " d="M481.2,263.1l-1.8,22.3c0,0-2.7-2.5-6.2-5.7l0.4-4c0,0,1.5-9.7,2-14.5
	c0.2,0.6,0.6,1.2,0.9,1.8L481.2,263.1z"/>
	<path fill="#3F3D56" d="M496.8,192.8c0,0-1.7-2.5-4.1,2.4c0,0-6.1,3.6-8.3,4c-2.1,0.4-9.6,3-9.6,3c-1.1,0.8-2.5,1.3-3.9,1.3
	c-2.4,0-4.3,5.2-4,8s-0.2,4.9-2.4,5c-2.2,0.1-1,4.6-1,4.6l14.5,16.7c0,0,0.9,15.3,0.5,15.8s-2.1,5-1.7,5.1
	c0.4,0.2-2.2,17.1-2.2,17.1l-3.5,32.9c0,0,0,5.5,7.1,7.4c7.1,1.9,24.7,0.6,25.8-4.4l3.6-4.7c0,0,6.2,12.1,15.7,10.9
	s15.5-4.7,15.5-4.7l-1-39.5l-0.7-28.4l14.8-24.3c0,0-4-7.6-3.6-11s1-6-7.4-7.2c0,0-7.1-1.1-11.3-4c-2.5-1.7-5.2-3.1-8.1-4.1
	c0,0-2.4-4.4-4-2.9c0,0,1.7,6.2,1.5,7.2c-0.1,0.9,0.3,5.1,0.5,5.6c0.3,0.4,3.7,20.7,0.2,27.9c0,0-5.2,19.5-8.8,23.2
	c-3.7,3.7-11.7-21.9-11.7-21.9s-4.3-22.9-3.6-26.1C496.3,204.5,496.8,192.8,496.8,192.8z"/>
	<circle fill="#3F3D56" cx="509.1" cy="265.6" r="2.5"/>
	<circle fill="#3F3D56" cx="509.1" cy="277.6" r="2.5"/>
	<circle opacity="0.1" enable-background="new    " cx="509.1" cy="265.6" r="2.5"/>
	<circle opacity="0.1" enable-background="new    " cx="509.1" cy="277.6" r="2.5"/>
	<path opacity="0.1" stroke="#EE8127" stroke-width="0.5508" stroke-miterlimit="5.5082" enable-background="new    " d="
	M531.8,428.2c0,0,10.4,0.8,11.4,1.6C544.3,430.6,531.8,428.2,531.8,428.2z"/>
	<path opacity="0.1" stroke="#EE8127" stroke-width="0.5508" stroke-miterlimit="5.5082" enable-background="new    " d="M470,420.1
	c0,0,2.2,2.8,1.3,4C470.4,425.4,470,420.1,470,420.1z"/>
	<path opacity="0.1" stroke="#EE8127" stroke-width="0.5508" stroke-miterlimit="5.5082" enable-background="new    " d="M472.7,430
	c0,0,4-2.6,5.6-0.9C479.9,430.9,472.7,430,472.7,430z"/>
	<path opacity="0.1" enable-background="new    " d="M522.7,173.4c0,1.4-0.2,2.7-0.5,4.1c-0.7-0.3-1.1-1-1.1-1.8
	c0.1-0.7,0.5-1.3,0.4-1.9c-0.1-1-1.3-1.4-2-2.2c-0.8-1-0.6-2.4-0.6-3.6c0.1-1.2-0.2-2.8-1.4-3.2c-0.3-0.1-0.7-0.1-1.1-0.3
	c-0.9-0.4-1.2-1.5-1.8-2.3c-1.2-1.6-3.7-1.5-5.5-0.8c-0.8,0.4-1.6,0.7-2.5,1c-0.9,0.3-1.8,0.2-2.6-0.2c-0.4-0.2-0.7-0.6-1-0.8
	c-1.2-0.7-2.9,0-4,1s-1.9,2.3-3.3,2.8c-0.6,0.3-1.4,0.4-1.7,1c-0.1,0.3-0.2,0.7-0.2,1c0,2.1,0.3,4.3-0.2,6.4
	c-0.3,1.3-1.2,2.9-2.6,2.7c-0.2,0-0.3-0.1-0.5-0.1c-1.6-8.8,4.1-17.2,12.9-18.8c8.8-1.6,17.2,4.1,18.8,12.9
	C522.7,171.4,522.8,172.4,522.7,173.4L522.7,173.4z"/>
	<path fill="#3F3D56" d="M490,175.5c0.4,0.1,0.8,0.3,1.2,0.4c1.4,0.2,2.3-1.4,2.6-2.7c0.4-2.1,0.2-4.3,0.2-6.4c0-0.4,0-0.7,0.2-1
	c0.3-0.6,1.1-0.8,1.7-1c1.3-0.6,2.2-1.9,3.3-2.8c1.1-1,2.7-1.7,3.9-1c0.4,0.2,0.7,0.6,1,0.8c0.8,0.4,1.7,0.5,2.6,0.2
	c0.9-0.3,1.7-0.7,2.5-1c1.8-0.7,4.3-0.8,5.5,0.8c0.6,0.8,0.9,1.9,1.8,2.3c0.3,0.1,0.7,0.2,1.1,0.3c1.2,0.4,1.5,1.9,1.4,3.2
	c0,1.2-0.2,2.6,0.6,3.6c0.6,0.8,1.9,1.2,2,2.2c0.1,0.6-0.3,1.3-0.4,1.9c-0.1,1,0.7,1.9,1.7,1.9c0,0,0,0,0,0c1.4,0,2.3-1.6,3.7-2.1
	c0.6-0.2,1.2-0.2,1.7-0.7c0.3-0.4,0.5-1,0.3-1.5c-0.3-2.1-2-3.9-1.8-6.1c0.2-2,2-3.8,1.7-5.8c-0.2-0.7-0.6-1.4-1.1-2
	c-0.6-0.8-1.4-1.5-2.2-1.9c-0.8-0.3-1.7-0.4-2.4-0.8c-2.1-1.1-2.1-4.1-3.3-6.1c-1.1-1.7-3-2.7-5-2.5c-1.5,0.2-3,1-4.5,1.3
	c-2.1,0.4-4.2-0.3-6.2-1.1c-2-0.8-4-1.7-6.1-1.7s-4.4,1.1-5.1,3.1c-0.3,1.1-0.2,2.3-0.4,3.4c-0.5,2-2.2,3.4-4,4.3
	c-1.2,0.7-2.7,1.4-2.8,2.8c-0.1,0.9,0.4,1.7,0.7,2.5c0.5,1.4,0.5,3,0,4.4c-0.4,1-1.1,2-1.5,3c-0.6,1.4-0.5,3,0.1,4.4
	c0.5,1,1.4,1.8,2.5,2.1C488.2,176.3,488.9,175.2,490,175.5z"/>
	<g opacity="0.1">
	<path d="M493.9,171.9c-0.3,1.3-1.2,2.9-2.6,2.7c-0.4-0.1-0.8-0.3-1.2-0.4c-1.2-0.3-1.8,0.8-2.9,0.6c-1.1-0.3-2-1.1-2.5-2.1
		c-0.3-0.6-0.5-1.2-0.5-1.8c-0.1,1,0.1,2,0.5,2.8c0.5,1,1.4,1.8,2.5,2.1c1.1,0.3,1.8-0.8,2.9-0.6c0.4,0.1,0.8,0.3,1.2,0.4
		c1.4,0.2,2.3-1.4,2.6-2.7c0.2-1.2,0.3-2.4,0.3-3.6C494.1,170.2,494,171.1,493.9,171.9z"/>
		<path d="M486.3,163.6c0.1-0.9-0.1-1.8-0.4-2.7c-0.2-0.6-0.5-1.1-0.6-1.7c0,0.1,0,0.2-0.1,0.3c-0.1,0.9,0.4,1.7,0.7,2.5
		C486.1,162.5,486.3,163.1,486.3,163.6z"/>
		<path d="M528.4,160.7c-0.3,1.6-1.5,3-1.7,4.7c0,0.3,0,0.6,0,0.8C527,164.3,528.7,162.6,528.4,160.7z"/>
		<path d="M528.5,172.4c0,0.2-0.2,0.4-0.3,0.6c-0.4,0.4-1.1,0.5-1.7,0.7c-1.3,0.5-2.2,2.1-3.7,2.1c-0.8,0-1.4-0.6-1.7-1.3
		c0,0.1-0.1,0.2-0.1,0.4c-0.1,1,0.7,1.9,1.7,1.9c0,0,0,0,0,0c1.4,0,2.3-1.6,3.7-2.1c0.6-0.2,1.2-0.2,1.7-0.7c0.3-0.4,0.5-1,0.3-1.5
		C528.5,172.5,528.5,172.4,528.5,172.4z"/>
		<path d="M521.6,171.9c-0.1-1-1.3-1.4-2-2.2c-0.4-0.5-0.6-1.2-0.6-1.8c0,1,0,2.1,0.6,2.8c0.6,0.8,1.6,1.1,1.9,1.9
		C521.6,172.4,521.6,172.2,521.6,171.9z"/>
		<path d="M519,166.1c0-1.2-0.3-2.8-1.4-3.2c-0.3-0.1-0.7-0.1-1.1-0.3c-0.9-0.4-1.2-1.5-1.8-2.3c-1.2-1.6-3.7-1.5-5.5-0.8
		c-0.8,0.3-1.6,0.8-2.5,1c-0.9,0.3-1.8,0.2-2.6-0.2c-0.4-0.2-0.7-0.6-1-0.8c-1.3-0.7-2.9,0-4,1s-1.9,2.3-3.3,2.8
		c-0.6,0.3-1.4,0.4-1.7,1c-0.1,0.3-0.2,0.7-0.2,1c0,0.2,0,0.4,0,0.6c0-0.2,0.1-0.4,0.2-0.6c0.3-0.6,1.1-0.8,1.7-1
		c1.3-0.6,2.2-1.9,3.3-2.8c1.1-1,2.7-1.7,4-1c0.4,0.2,0.7,0.6,1,0.8c0.8,0.4,1.7,0.5,2.6,0.2c0.8-0.3,1.7-0.6,2.5-1
		c1.8-0.7,4.3-0.8,5.5,0.8c0.6,0.8,0.9,1.9,1.8,2.3c0.3,0.1,0.7,0.2,1.1,0.3c0.9,0.4,1.3,1.4,1.4,2.5L519,166.1z"/>
</g>
	<g opacity="0.1">
	<path d="M491.9,171.9c0.1-1.9,1.4-3.5,3.2-3.9c2.5-0.6,5-0.5,7.4,0.3c5.2,1.7-0.7,8-0.7,8s-3.9,3.9-7.6,1.2c-1.1-0.8-1.8-2-2.1-3.3
		C492,173.4,491.9,172.6,491.9,171.9z"/>
		<path d="M520.6,171.9c-0.1-1.9-1.4-3.5-3.2-3.9c-2.5-0.6-5-0.5-7.4,0.3c-5.2,1.7,0.7,8,0.7,8s3.9,3.9,7.6,1.2
		c1.1-0.8,1.8-2,2.1-3.3C520.6,173.4,520.6,172.6,520.6,171.9z"/>
		<polygon points="501.5,167.8 501.5,168 511.1,168 511.1,167.7 	"/>
		<path d="M504.6,170.5h0.3v-0.9c0,0,1-0.8,2.6,0v0.8h0.6v-0.5h-0.3c0,0,0.1-1.1-1.7-0.9c0,0-1.4-0.1-1.4,0.8h-0.3L504.6,170.5z"/>
</g>
	<path fill="#EE8127" d="M491.9,171.5c0.1-1.9,1.4-3.5,3.2-3.9c2.5-0.6,5-0.5,7.4,0.3c5.2,1.7-0.7,8-0.7,8s-3.9,3.9-7.6,1.2
	c-1.1-0.8-1.8-2-2.1-3.3C492,173,491.9,172.3,491.9,171.5z"/>
	<path fill="#EE8127" d="M520.6,171.5c-0.1-1.9-1.4-3.5-3.2-3.9c-2.5-0.6-5-0.5-7.4,0.3c-5.2,1.7,0.7,8,0.7,8s3.9,3.9,7.6,1.2
	c1.1-0.8,1.8-2,2.1-3.3C520.6,173,520.6,172.3,520.6,171.5z"/>
	<polygon fill="#EE8127" points="501.5,167.4 501.5,167.7 511.1,167.7 511.1,167.4 "/>
	<path fill="#EE8127" d="M504.6,170.2h0.3v-0.9c0,0,1-0.7,2.6,0v0.8h0.6v-0.5h-0.3c0,0,0.1-1.1-1.7-0.9c0,0-1.4-0.1-1.4,0.8h-0.3
	L504.6,170.2z"/>
	<rect x="64.7" y="259.1" fill="#535461" width="3.1" height="70.4"/>
	<path fill="#3F3D56" d="M87.5,329.3l-0.2,3.2l-0.3,4.5l-0.1,1.9l-0.3,4.5l-0.1,1.9l-0.3,4.5l-3.2,50.9c-0.3,4.5-4.1,8.1-8.6,8.1
	H58.1c-4.6,0-8.3-3.5-8.6-8.1l-3.2-50.9l-0.3-4.5l-0.1-1.9l-0.3-4.5l-0.1-1.9l-0.3-4.5l-0.2-3.2c-0.2-2.5,1.7-4.6,4.2-4.7
	c0.1,0,0.2,0,0.3,0H83c2.5,0,4.5,2,4.5,4.5C87.5,329.1,87.5,329.2,87.5,329.3z"/>
	<polygon fill="#9D9CB5" points="87.3,332.5 87,336.9 45.5,336.9 45.2,332.5 "/>
	<polygon fill="#9D9CB5" points="86.9,338.8 86.6,343.3 45.9,343.3 45.6,338.8 "/>
	<polygon fill="#9D9CB5" points="86.5,345.2 86.2,349.6 46.3,349.6 46,345.2 "/>
	<path fill="#EE8127" d="M40.5,285.5c18.2,13.2,25.8,33.8,25.8,33.8s-22-0.8-40.2-13.9S0.2,271.5,0.2,271.5S22.2,272.3,40.5,285.5z"
	/>
	<path fill="none" stroke="#535461" stroke-width="1.1016" stroke-miterlimit="5.5082" d="M0.3,271.5c0,0,22.8,12.7,30.1,23.1
	c7.3,10.5,35.9,24.6,35.9,24.6"/>
	<path fill="#EE8127" d="M52.2,258.9c9.9,7.2,14.1,18.4,14.1,18.4s-12-0.4-21.9-7.6c-9.9-7.2-14-18.4-14-18.4S42.3,251.7,52.2,258.9z
	"/>
	<path fill="none" stroke="#535461" stroke-width="1.1016" stroke-miterlimit="5.5082" d="M30.3,251.3c0,0,12.4,6.9,16.4,12.6
	s19.5,13.4,19.5,13.4"/>
	<path fill="#EE8127" d="M80.7,276.7c-11.4,12.5-13.8,28.9-13.8,28.9s16.1-3.9,27.5-16.5c11.4-12.5,13.8-28.9,13.8-28.9
	S92.1,264.2,80.7,276.7z"/>
	<path fill="none" stroke="#535461" stroke-width="1.1016" stroke-miterlimit="5.5082" d="M108.1,260.3c0,0-14.8,12.8-18.6,21.7
	c-3.8,8.8-22.6,23.7-22.6,23.7"/>
</svg>
