<?xml version="1.0" encoding="utf-8"?>
<!-- Generator: Adobe Illustrator 25.3.1, SVG Export Plug-In . SVG Version: 6.00 Build 0)  -->
<svg version="1.1" id="_x38_13c2686-e70f-4fb0-bf6b-a2eb7b1db384"
	 xmlns="http://www.w3.org/2000/svg" xmlns:xlink="http://www.w3.org/1999/xlink" x="0px" y="0px" width="631px" height="479.4px"
	 viewBox="0 0 631 479.4" enable-background="new 0 0 631 479.4" xml:space="preserve">
<g opacity="0.9">
	<path opacity="0.1" fill="#EE8127" enable-background="new    " d="M630.3,226.7C630.3,226.7,630.3,226.7,630.3,226.7
		c0,0.1,0,0.1,0,0.1c0,0.2,0,0.3-0.1,0.5c-0.2,1.3-0.5,2.7-0.8,4c-2,9.1-6.2,18.1-11.8,26.3c-0.2,0.3-0.4,0.6-0.7,0.9
		c-0.4,0.6-0.9,1.2-1.3,1.8c-0.3,0.4-0.6,0.8-0.9,1.2c-2.2,2.8-4.5,5.5-7.1,8.1c-1.4,1.4-2.8,2.7-4.2,4l-0.6,0.6
		c-0.8,0.7-1.6,1.3-2.4,2c-0.3,0.3-0.7,0.6-1,0.8l-0.6,0.5l-0.4,0.3c-0.4,0.3-0.8,0.6-1.2,0.9l-0.3,0.2c-0.9,0.7-1.9,1.3-2.8,1.9
		c-2.1,1.3-4.2,2.6-6.4,3.7c-1,0.5-2,1-3,1.4c-1.2,0.6-2.5,1.1-3.7,1.5c-0.3,0.1-0.7,0.2-1,0.4c-1,0.3-1.9,0.6-2.9,0.9l-0.5,0.1
		l-0.2,0.1l0,0l-0.6,0.2c-2.9,0.8-5.8,1.4-8.8,1.8l-0.5,0.1l-0.3,0c-3.8,0.6-7.5,0.8-11.3,1c-5.1,0.3-10.3,0.3-15.5,0L538,292h-0.3
		c-1-0.1-1.9-0.2-2.9-0.3c-0.6-0.1-1.1-0.1-1.7-0.2c-0.9-0.1-1.7-0.2-2.6-0.3h0l-0.8-0.1c-0.7-0.1-1.5-0.2-2.2-0.4l-0.7-0.1
		l-1.1-0.2l-0.2,0c-2.4-0.5-4.7-1.1-6.9-1.8l-0.5-0.2c-1.6-0.5-3.3-1.2-4.8-1.8c-1.2-0.5-2.3-1-3.5-1.6c-1.6-0.8-3.2-1.7-4.7-2.7
		c-2.2-1.3-4.2-2.7-6.2-4.3c-2.7-2-5.2-4.1-7.7-6.3l-0.5-0.5l-0.9-0.8c-12.7-11.5-23.4-25.1-31.6-40.2c-0.9-1.6-1.7-3.2-2.5-4.9
		c-0.2-0.5-0.5-1-0.7-1.5c0,0,0-0.1-0.1-0.1l-0.4-0.8c-1-2.2-2-4.4-2.9-6.7l-0.4-1l-0.6-1.7l-0.3-0.7c-0.8-2.1-1.5-4.2-2.2-6.4
		c-0.1-0.4-0.2-0.7-0.3-1.1c-0.4-1.2-0.7-2.3-1-3.5c-0.3-1.1-0.6-2.2-0.8-3.3c0-0.2-0.1-0.3-0.1-0.5c-2.3-9.5-3.2-19.8-0.9-30.2
		c0.2-0.7,0.3-1.4,0.5-2.1c0.3-1.1,0.6-2.1,0.9-3.2c0.1-0.2,0.2-0.5,0.2-0.7l0.1-0.3c0-0.1,0-0.1,0.1-0.2c0,0,0-0.1,0-0.1
		c0.2-0.5,0.4-1,0.6-1.6s0.4-1,0.7-1.6l0,0l0-0.1c0-0.1,0.1-0.1,0.1-0.2c0.2-0.4,0.4-0.8,0.6-1.2l0.2-0.4l0.1-0.2
		c0.1-0.2,0.2-0.4,0.3-0.6c1.5-2.9,3.4-5.7,5.4-8.3c1.2-1.4,2.4-2.8,3.7-4.1c2-2,4.2-3.7,6.5-5.2c0.4-0.2,0.7-0.4,1.1-0.7
		c3-1.8,6.3-3,9.8-3.5c4.5-0.6,8.7,0.1,12.7,1.1l0.4,0.1c0.7,0.2,1.4,0.3,2.1,0.5c2.4,0.6,4.8,1.2,7.2,1.8c2.3,0.5,4.5,0.9,6.8,1.2
		c2.3,0.3,4.7,0.4,7.1,0.4c0.3,0,0.7,0,1.1,0c4.3-0.2,8.6-1.1,12.7-2.8c3.1-1.2,5.9-3.1,8.2-5.4c0.4-0.5,0.9-1,1.3-1.5l0,0
		c0.7-0.9,1.3-1.8,1.8-2.8c0.2-0.3,0.3-0.6,0.5-0.9l0,0c0.1-0.1,0.1-0.2,0.2-0.3l0,0l0.9-1.7l0,0c0-0.1,0.1-0.1,0.1-0.2
		c0.4-0.8,0.8-1.6,1.3-2.4c1.7-3.2,3.7-6.2,6.1-9l0,0c2.5-2.8,5.6-5,9-6.5c0.6-0.2,1.1-0.5,1.8-0.7c2.6-0.9,5.4-1.4,8.2-1.5
		c0.3,0,0.7,0,1,0c2.8,0.1,5.5,0.6,8.1,1.4l0,0c4,1.4,7.7,3.3,11.2,5.8c5.2,3.7,9.9,8,14,12.8c0.3,0.4,0.7,0.8,1,1.2
		c3.5,4.3,6.6,8.9,9.3,13.8c8.1,14.4,13.5,31.3,17.3,48.5l0.2,0.8c0.1,0.4,0.2,0.8,0.3,1.2c0.2,0.8,0.4,1.7,0.5,2.5
		c0.1,0.6,0.3,1.2,0.4,1.8l0,0c0.1,0.4,0.2,0.9,0.3,1.3c0.1,0.3,0.1,0.6,0.2,0.8c0.9,4.6,1.6,9.3,2,13.9c0,0.2,0,0.3,0,0.5
		C631.2,215.1,631.1,220.9,630.3,226.7z"/>
	<path fill="#3F3D56" d="M589.3,272.4c-0.6-0.2-1.7,0.6-3.1,1.8c-0.7,0.6-1.4,1.3-2.2,2l-0.4,0.4l-0.2,0.2c-1.1,1-2.2,2.1-3.4,3.3
		c-0.8,0.7-1.6,1.4-2.4,2.1c-1.1,0.9-1.7,3.5-2,7c-2.9,0.8-5.8,1.4-8.8,1.8l-0.5,0.1l-0.3,0c-0.2-1-0.3-1.7-0.3-1.7
		s-5.1-4.2-3.6-9.5c0.8-3,9.2-8.7,16.1-13c0.8-0.5,1.7-1,2.5-1.5l0.5-0.3c0.3-0.2,0.6-0.4,0.9-0.6l2.3-1.4c1.6-0.9,2.8-1.6,3.2-1.8
		l0.2-0.1C587.9,261.2,590.8,272.8,589.3,272.4z"/>
	<path opacity="0.1" enable-background="new    " d="M589.3,272.4c-0.6-0.2-1.7,0.6-3.1,1.8c-0.7,0.6-1.4,1.3-2.2,2l-0.4,0.4
		l-0.2,0.2c-1.1,1-2.2,2.1-3.4,3.3c-0.8,0.7-1.6,1.4-2.4,2.1c-1.1,0.9-1.7,3.5-2,7c-2.9,0.8-5.8,1.4-8.8,1.8l-0.5,0.1l-0.3,0
		c-0.2-1-0.3-1.7-0.3-1.7s-5.1-4.2-3.6-9.5c0.8-3,9.2-8.7,16.1-13c0.8-0.5,1.7-1,2.5-1.5l0.5-0.3c0.3-0.2,0.6-0.4,0.9-0.6l2.3-1.4
		c1.6-0.9,2.8-1.6,3.2-1.8l0.2-0.1C587.9,261.2,590.8,272.8,589.3,272.4z"/>
	<path fill="#3F3D56" d="M588,266.1c0,0-1,1.1-2.6,2.7c-0.7,0.7-1.5,1.5-2.3,2.4l-0.1,0.1l-0.4,0.5c-1,1.1-2.1,2.2-3.2,3.4
		c-5.8,6.2-12.3,13.4-12.3,14.5c0,0.4-0.1,0.9-0.3,1.2l-0.5,0.1l-0.3,0c-3.8,0.6-7.5,0.8-11.3,1c-5.1,0.3-10.3,0.3-15.5,0l-1.4-0.1
		h-0.3c-1-0.1-1.9-0.2-2.9-0.3c-0.6-0.1-1.1-0.1-1.7-0.2c0.7-0.9,1.4-1.9,2-2.9c1.4-2,2.7-4,3.9-5.9c0.1-0.1,0.1-0.2,0.2-0.3
		c0.7-1.1,1.3-2.2,1.7-3.1c0.4-0.8,0.8-1.7,0.9-2.6c0.2-1.1,0.5-2.2,1-3.2c2.5-6.3,9-19.1,12.6-26.2l0.3-0.6l0.3-0.6
		c1.2-2.3,1.9-3.7,1.9-3.7l8.9-2.4l0.6-0.2l2-0.5l0.8-0.2l4.2-1.1h0.1l0.2,0l4.4-1.2l1.5-0.4l1.7-0.4l4.3,7.3l1.2,18.2L588,266.1z"
	/>
	<path opacity="0.1" enable-background="new    " d="M527.6,290.6c-1.7-2.3-2.7-3.6-2.7-3.6s2.5-0.6,5.7-1.5c1.6-0.5,3.5-1,5.3-1.6
		c1.1-0.4,2.3-0.8,3.3-1.2c0.6-0.2,1.1-0.4,1.6-0.6c2.3-1,4.1-2,4.4-2.9c0.1-0.4,0-0.7-0.1-1.1c-0.5-1.6-1.2-3.2-2.1-4.7
		c-0.3-0.6-0.6-1.2-1-1.8c-1.1-2.1-2.5-4.4-3.9-6.9c-1.2-2.1-2.6-4.2-3.9-6.4c-1.2-1.9-2.4-3.8-3.6-5.7c0-0.1-0.1-0.1-0.1-0.2
		c-5.4-8.5-10.2-15.8-10.4-16l0,0l-3.2,7.6l-0.1,0.1l-5.2,4.6l-0.1,0.1c-1.6,1.4-3.5,3.1-5.3,4.8c-1.4,1.2-2.8,2.5-4.1,3.7
		c-1.9,1.7-3.7,3.3-5.2,4.7c-1.2,1.1-2.4,2.2-3.5,3.4c-0.9,2-1.7,4-2.3,6.1c2.5,2.2,5,4.3,7.7,6.3c2,1.5,4.1,2.9,6.2,4.2
		c1.5,0.9,3.1,1.8,4.7,2.7c1.1,0.6,2.3,1.1,3.5,1.6c1.6,0.7,3.2,1.3,4.8,1.8l0.5,0.2c2.3,0.7,4.6,1.3,6.9,1.8l0.2,0l1.1,0.2
		L527.6,290.6z"/>
	<path fill="#3F3D56" d="M570.8,237.2l-0.5,0.8c-0.2,0.3-0.5,0.7-0.8,1.2c-0.3,0.5-0.8,1.2-1.2,1.9l-0.3,0.6
		c-0.8,1.3-1.8,2.8-2.8,4.4c-0.1,0.2-0.3,0.4-0.4,0.6c-0.1,0.2-0.3,0.4-0.4,0.6c-6.8,10.6-16.7,26.3-19.3,30.8
		c-0.2,0.3-0.4,0.7-0.6,1.1c-0.3,0.8-1.8,1.7-3.8,2.6c-0.4,0.2-0.9,0.4-1.4,0.6c-1.1,0.4-2.3,0.9-3.5,1.3c-1.8,0.6-3.6,1.1-5.3,1.6
		c-3.5,1-6.3,1.7-6.3,1.7s1,1.3,2.6,3.5l-1.1-0.2l-0.2,0c-2.4-0.5-4.7-1.1-6.9-1.8l-0.5-0.2c-1.6-0.5-3.3-1.2-4.8-1.8
		c-1.2-0.5-2.3-1-3.5-1.6c-1.6-0.8-3.2-1.7-4.7-2.7c-2.2-1.3-4.2-2.7-6.2-4.3c-2.7-2-5.2-4.1-7.7-6.3l-0.5-0.5
		c0.6-1.9,1.3-3.8,2.1-5.6c0-0.1,1.6-1.7,4.1-3.9c1.5-1.4,3.3-3,5.2-4.7l4.1-3.7l4.9-4.4l0.1-0.1l5.1-4.5l0.1-0.1l3.2-7.6h0.6
		l11.5,0.2h0.1h1.1h0.6l3.6,0.1l4.3,0.1l5,0.1l19.6,0.3h0.6l3.7,0.1L570.8,237.2z"/>
	<path fill="#FBBEBE" d="M571.1,158.8l-1.9,17.3c0,0-19.5,7.8-20,7.6c-0.5-0.2-13-11.4-10.9-18.9c1-3.7,1.5-8.9,1.7-13.1
		c0.2-4.2,0.2-7.5,0.2-7.5s28.4-10.1,25.8-3.2c-0.9,2.5-0.5,5.6,0.4,8.4C567.5,152.8,569.1,155.9,571.1,158.8z"/>
	<path opacity="0.1" enable-background="new    " d="M566.4,149.5c-0.2,0.2-0.3,0.4-0.5,0.6c-6.9,7.3-18.2,8-25.9,1.6
		c0.2-4.2,0.2-7.5,0.2-7.5s28.4-10.1,25.8-3.2C565.1,143.6,565.5,146.6,566.4,149.5z"/>
	<path fill="#FBBEBE" d="M571.1,136.4c0,10.5-8.5,19-19,19c-10.5,0-19-8.5-19-19c0-10.5,8.5-19,19-19c10.4-0.1,18.9,8.3,19,18.8
		C571.1,136.2,571.1,136.3,571.1,136.4z"/>
	<path opacity="0.1" enable-background="new    " d="M547.6,176.7c0,0-7.4-16.5-10-16.5c-2.5,0-6.5,85.4-6.5,85.4l38.8,0.6l1.6-44.8
		l-7.9-39.7C563.7,161.6,556.5,177.3,547.6,176.7z"/>
	<path opacity="0.1" enable-background="new    " d="M547.6,178c0,0-7.4-16.5-10-16.5c-2.5,0-6.5,85.4-6.5,85.4l44,0.7l-3.6-44.9
		l-7.9-39.7C563.6,162.9,556.5,178.6,547.6,178z"/>
	<path fill="#65617D" d="M547.6,177.4c0,0-7.4-16.5-10-16.5c-2.5,0-6.5,85.4-6.5,85.4l44,0.7l-3.6-44.9l-7.9-39.7
		C563.6,162.3,556.5,178,547.6,177.4z"/>
	<path opacity="0.1" enable-background="new    " d="M540.4,155.7c0,0-1.3-1.9-3.2-1.3c-1.9,0.6-3.3-1.1-5.2,0.6
		c-1.9,1.8-9.5,4.1-10.9,3.3c-1.4-0.8-6.5,2.7-7.6,4.8c-1.1,2.1-4.8,7.6-4.8,7.6s-3.2,3.8-2.7,5.9c0.5,2.1-1.1,4.4-3,5.4
		c-1.9,1-5.7,10.5-5.7,10.5s1,12.7-3.3,14.9c-4.3,2.2-1.1,11.9-1.1,11.9l20.2-4.8l5.7-13c0,0-2.2,38-4.9,41.5c-2.7,3.5-3,5.7-3,5.7
		s10.5,2.2,12.7,4.1s8.1-0.5,8.1-0.5l5.7-50.5c0,0,2.1-9.5,2.1-14.4S540.4,155.7,540.4,155.7z"/>
	<path fill="#EE8127" d="M539.8,155.7c0,0-1.3-1.9-3.2-1.3c-1.9,0.6-3.3-1.1-5.2,0.6c-1.9,1.8-9.5,4.1-10.9,3.3
		c-1.4-0.8-6.5,2.7-7.6,4.8c-1.1,2.1-4.8,7.6-4.8,7.6s-3.2,3.8-2.7,5.9c0.5,2.1-1.1,4.4-3,5.4s-5.7,10.5-5.7,10.5s1,12.7-3.3,14.9
		c-1.1,0.6-1.7,1.8-2,3.3c-1.2,6.2,3.9,11.9,10.2,11.7l10.9-4.5l5.7-16.4c0,0-2.2,38-4.9,41.5c-2.7,3.5-3,5.7-3,5.7
		s10.5,2.2,12.7,4.1c2.2,1.9,8.1-0.5,8.1-0.5l5.7-50.5c0,0,2.1-9.5,2.1-14.4C538.8,182.4,539.8,155.7,539.8,155.7z"/>
	<path opacity="0.1" enable-background="new    " d="M504.9,183.2c0,0,1.9,5.2,7.1,4.8C517.2,187.5,504.9,183.2,504.9,183.2z"/>
	<path opacity="0.1" enable-background="new    " d="M509.9,175.3c0,0,3.5,0.6,4.8,3.6C515.9,181.9,509.9,175.3,509.9,175.3z"/>
	<path opacity="0.1" enable-background="new    " d="M519.8,169.9c0,0.6,2.2,11.7,0,16.3c-2.2,4.6-1.9,10-1.9,10L519.8,169.9z"/>
	<path opacity="0.1" enable-background="new    " d="M566.5,151.9c0,0,1.2-1.5,2.5-1.3c1.3,0.2,2.1,1,3.6,1.6
		c1.6,0.6,5.4,0.8,5.4,1.3c0,0.5,3.3,2.4,5.5,2.8c2.2,0.5,9.2,5.2,10.9,14.4c1.7,9.2,4.8,11.9,4.8,11.9l-16.8,8.2
		c0,0,13,55.1,14.6,59.1c1.6,4,1.7,27.4,1.7,27.4s-10.3,4.6-13,6c-2.7,1.4-1.6-13.6-7.1-22.3s-11.9-21.4-11.9-21.4l-9.7-27.1
		c0,0-6.2-36.1-1-42.8C561.5,163.1,567,154.2,566.5,151.9z"/>
	<path fill="#EE8127" d="M599.4,277c0,0.2,0,0.3,0,0.3l-0.6,0.3l-0.4,0.2l-4.3,1.9c-2.4,1.1-5,2.3-6.6,3.1c-0.4,0.2-0.8,0.4-1,0.5
		c-0.2,0.1-0.4,0.1-0.6,0c-0.8-0.6-1.2-3.4-1.8-7.1c-0.2-1.5-0.5-3.2-0.9-5c-0.1-0.3-0.1-0.6-0.2-0.8c-0.4-1.8-0.9-3.7-1.6-5.4
		c-0.5-1.4-1.2-2.7-2-4c-0.7-1.1-1.5-2.4-2.2-3.6c-2-3.3-3.9-6.9-5.6-9.9c-0.1-0.2-0.2-0.4-0.3-0.6c-0.4-0.8-0.8-1.5-1.2-2.2
		c-0.7-1.4-1.4-2.6-1.8-3.5l-0.7-1.4c0-0.1,0-0.1-0.1-0.1l-0.9-2.4l-1.7-4.7l-2-5.5l-0.9-2.6l-0.7-1.9l-0.2-0.6l-3.3-9.3
		c0,0-0.2-1.4-0.6-3.6c-0.9-5.9-2.5-17.8-2.5-27.2c0-2.3,0.1-4.6,0.4-6.8c0-0.2,0.1-0.5,0.1-0.7c0-0.2,0.1-0.5,0.1-0.8
		c0.2-1.3,0.7-2.6,1.4-3.7c5.2-6.7,10.8-15.5,10.3-17.9l0.1-0.1c0.2-0.2,0.5-0.5,0.8-0.7c0.3-0.2,0.7-0.4,1.1-0.5c0.2,0,0.3,0,0.5,0
		l0,0c1.3,0.2,2.1,1,3.6,1.6c1.6,0.6,5.4,0.8,5.4,1.3s3.3,2.4,5.5,2.9c2.2,0.5,9.2,5.2,10.9,14.4c1.7,8.9,4.5,11.7,4.7,11.9l0,0
		l-0.6,0.3l-9.5,4.7l-2,1l-4.6,2.3c0,0,1.2,5.1,2.9,12.3c0,0.1,0.1,0.2,0.1,0.3c0.1,0.2,0.1,0.4,0.2,0.7c1.3,5.3,2.8,11.6,4.3,17.8
		l0,0l0.1,0.6l0.4,1.8c0.1,0.6,0.3,1.1,0.4,1.7l0.2,0.9c0.4,1.7,0.8,3.4,1.2,5.1c0.6,2.4,1.2,4.8,1.7,6.9c1.5,5.8,2.6,10.1,3,11.1
		c0.6,1.5,1,5.5,1.2,10.1C599.3,267,599.4,275.3,599.4,277z"/>
	<path opacity="0.1" enable-background="new    " d="M601.5,221.2c-0.5,0.1-1.1,0.1-1.8,0.2c-5.1,0.5-15,0.6-15,0.6
		s-7.4-14.7-13.8-14.3c0,0,5.9-6.7,8.2-5.9c0.4,0.1,0.6-0.2,0.8-0.7c0.6-2.8-1.6-12.6-1.6-12.6l-3-13.1l17.4,4.3
		c1.6,0.3,6.5,2.9,6.5,2.9s0.2,6.8,1.4,8.4s2.7,9.2,2.5,11.1c-0.2,1.9,1.7,10.8-0.2,13.1C601.2,217.6,605.5,220.6,601.5,221.2z"/>
	<path fill="#EE8127" d="M602.1,221.2c-0.5,0.1-1.1,0.1-1.8,0.2c-5.1,0.5-15,0.6-15,0.6s-7.4-14.7-13.8-14.3c0,0,5.9-6.7,8.2-5.9
		c0.4,0.1,0.6-0.2,0.8-0.7c0.6-2.8-1.6-12.6-1.6-12.6l-3-13.1l17.4,4.3c1.6,0.3,6.5,2.9,6.5,2.9s0.2,6.8,1.4,8.4s2.7,9.2,2.5,11.1
		c-0.2,1.9,1.7,10.8-0.2,13.1C601.8,217.6,606.1,220.6,602.1,221.2z"/>
	<path opacity="0.1" enable-background="new    " d="M584.2,186.7c0,0,14.6,1.6,15.2,5.2C600,195.6,584.2,186.7,584.2,186.7z"/>
	<path opacity="0.1" enable-background="new    " d="M571.1,136.4c0,4.9-1.9,9.5-5.2,13c0,0,0-0.1,0-0.1c-0.6-1.2-1.1-2.5-1.1-3.8
		c0.1-1.6,1-3,1.3-4.6c0.4-2-0.3-4-0.9-5.9c-0.5-1.4-1.4-3.1-2.8-2.9c-0.3,0.1-0.6,0.1-0.9,0.1c-0.8-0.1-0.9-1.1-1-1.9
		c-0.5-3.8-3.4-6.8-7.2-7.5c-0.4-0.1-0.9-0.1-1.3,0.1c-0.6,0.2-0.8,0.8-1.3,1.2c-1.6,1.1-3.7-1-5.6-0.9c-1.7,0.1-2.7,1.8-3.4,3.4
		c-0.7,1.5-1.5,3.2-3.2,3.6c-0.3,0.1-0.5,0.1-0.8-0.1c-0.5-0.4-0.2-1.1,0.1-1.7c0.7-1.5,0.2-2.7-0.6-3.8c6.5-8.2,18.5-9.5,26.7-3
		C568.4,125.1,571,130.6,571.1,136.4L571.1,136.4z"/>
	<path fill="#B2B1BB" d="M509.7,284.7c-1.6-0.8-3.2-1.7-4.7-2.7c-2.2-1.3-4.2-2.7-6.2-4.3l-1.9-15.8l-0.1-0.5l-3.7-30l-0.2-1.8
		l6.1-0.2l4.3-0.1l0.3,2.5l2.5,21.1l0.1,0.5L509.7,284.7z"/>
	<path opacity="0.1" enable-background="new    " d="M505,282.1c-2.2-1.3-4.2-2.7-6.2-4.3l-1.9-15.8l-0.1-0.5l-3.7-30l-0.2-1.8
		l6.1-0.2l-0.3,1l0.2,1.2l3.1,25.1l0.1,0.5L505,282.1z"/>
	<path fill="#B2B1BB" d="M547.2,230.1l-0.3,2.7l-0.5,4.1l-1.1,9l-0.1,0.6l-0.1,0.6l-3.1,24.6l-1,7.6l-0.3,2.5l0,0.3l-1.2,10L538,292
		h-0.3c-1-0.1-1.9-0.2-2.9-0.3c-0.6-0.1-1.1-0.1-1.7-0.2c-0.9-0.1-1.7-0.2-2.6-0.3h0l-0.8-0.1l0.8-5.6v-0.2l3.6-26.9l1.5-11.4
		l0.1-0.6l0.1-0.6l1.2-9l0.5-3.8l0.3-2.2l0.4,0L547.2,230.1z"/>
	<path opacity="0.2" enable-background="new    " d="M541.9,231.5l-0.2,1.3l-0.5,3.9l-1.1,9l-0.1,0.6l-0.1,0.7l-2.1,17.8l-2.3,18.9
		v0.2l-0.6,4.7l-0.4,3.1c-0.6-0.1-1.1-0.1-1.7-0.2c-0.9-0.1-1.7-0.2-2.6-0.3h0l-0.8-0.1l0.8-5.6v-0.2l3.6-26.9l1.5-11.4l0.1-0.6
		l0.1-0.6l1.2-9l0.5-3.8l0.3-2.2l0.4,0L541.9,231.5z"/>
	<path fill="#65617D" d="M587.5,282.8l0.2,1.6c-1,0.5-2,1-3,1.4c-1.2,0.6-2.5,1.1-3.7,1.5L580,280l-0.6-4.8l-1.1-8.3l-1-8.1
		l-0.2-1.3l-2.5-19.6l-0.4-3.4l-0.1-1.1l-0.1-1l-0.3-2.3h0.2h0.1l4.3-0.5l1.4-0.1l0.4,2.9l0.6,4.1l4,26.8l0.9,5.7l0.8,5.3l1.2,8.4
		L587.5,282.8z"/>
	<path opacity="0.1" fill="#CCCCCC" enable-background="new    " d="M587.5,282.8l0.2,1.6c-1,0.5-2,1-3,1.4
		c-1.2,0.6-2.5,1.1-3.7,1.5L580,280l-0.6-4.8l-1.1-8.3l-1-8.1l-0.2-1.3l-2.5-19.6l-0.4-3.4l-0.1-1.1l-0.1-1l-0.3-2.3h0.2h0.1
		l4.3-0.5l1.4-0.1l0.4,2.9l0.6,4.1l4,26.8l0.9,5.7l0.8,5.3l1.2,8.4L587.5,282.8z"/>
	<path fill="#B2B1BB" d="M587.7,284.4c-1,0.5-2,1-3,1.4l-0.6-5.6l-0.4-3.7l-0.6-5.2l-0.1-0.9l-0.7-6l-3.2-27.8l-0.5-4.5l-0.2-1.5
		l-0.3-1.3l1.4-0.1l0.4,2.9l0.6,4.1l4,26.8l0.9,5.7l0.8,5.3l1.2,8.4l0,0.3L587.7,284.4z"/>
	<path fill="#65617D" d="M601.2,229.6l0,2.2l-0.7,44.4c-0.3,0.3-0.7,0.6-1,0.8c0,0.2,0,0.3,0,0.3l-0.6,0.3l-0.4,0.2
		c-0.4,0.3-0.8,0.6-1.2,0.9l-0.3,0.2c-0.9,0.7-1.9,1.3-2.8,1.9v-1.1v-0.3l0.6-38.3l0-2.4l0.1-6.9l0-3.1l4.3,0.5L601.2,229.6z"/>
	<path opacity="0.1" fill="#CCCCCC" enable-background="new    " d="M601.2,229.6l0,2.2l-0.7,44.4c-0.3,0.3-0.7,0.6-1,0.8
		c0,0.2,0,0.3,0,0.3l-0.6,0.3l-0.4,0.2c-0.4,0.3-0.8,0.6-1.2,0.9l-0.3,0.2c-0.9,0.7-1.9,1.3-2.8,1.9v-1.1v-0.3l0.6-38.3l0-2.4
		l0.1-6.9l0-3.1l4.3,0.5L601.2,229.6z"/>
	<path fill="#B2B1BB" d="M601.2,229.6l0,2.2l-0.7,44.4c-0.3,0.3-0.7,0.6-1,0.8c0,0.2,0,0.3,0,0.3l-0.6,0.3v-0.1l0.1-17.4l0.2-28.2
		v-2.5L601.2,229.6z"/>
	<path fill="#65617D" d="M630.3,226.8C630.3,226.8,630.3,226.8,630.3,226.8c0,0.2,0,0.4-0.1,0.5c-0.2,1.3-0.5,2.7-0.8,4l-28.3,0.5
		l-2.1,0l-4.3,0.1l-1.8,0h-0.6l-12.5,0.2h-1.4l-4.5,0.1h-0.1l-3.5,0.1l-5.6,0.1h-0.6l0,0l-17.4,0.3l-5.1,0.1l-4.3,0.1l-3.7,0.1h-0.6
		h-1.3h-0.1L529,233l-12.8-0.6l-0.6,0l-11.9-0.5l-4.7-0.2l-5.8-0.3l-35-1.5c-0.9-1.6-1.7-3.2-2.5-4.9c-0.2-0.5-0.5-1-0.7-1.5
		l35.7-0.6l0,0l22-0.3l0,0l4.1-0.1h0.6l11.3-0.2l3.9,0.2h0.1l1.9,0.1l0.6,0l7.7,0.4l0,0l18.7,1l0.6,0l8.7,0.5l2.6,0.1h0.1l17.4,1
		l0.6,0h0.1L630.3,226.8z"/>
	<path fill="#B2B1BB" d="M630.3,226.8C630.3,226.8,630.3,226.8,630.3,226.8c0,0.2,0,0.4-0.1,0.5c-0.2,1.3-0.5,2.7-0.8,4l-28.3,0.5
		l-2,0l-4.3,0.1l-1.8,0h-0.6l-12.5,0.2h-1.4l-4.5,0.1h-0.1l-3.5,0.1l-5.6,0.1h-0.6l0,0l-17.4,0.3l-5.1,0.1l-4.3,0.1l-3.7,0.1h-0.6
		h-1.3h-0.1L529,233l-12.8-0.6h-0.6l-11.9-0.5l-4.7-0.2l-5.8-0.2l-35-1.5c-0.9-1.6-1.7-3.2-2.5-4.9c-0.2-0.5-0.5-1-0.7-1.5l35.7-0.6
		l0,0l22-0.3l0,0l4.1-0.1h0.6l11.3-0.2l3.9,0.2h0.1l1.9,0.1l0.6,0l7.7,0.4l0,0l18.7,1l0.6,0l8.7,0.5l2.6,0.1h0.1l17.4,1l0.6,0h0.1
		L630.3,226.8z"/>
	<path opacity="0.1" enable-background="new    " d="M630.3,226.8C630.3,226.8,630.3,226.8,630.3,226.8l-38.5,0.1h-0.6l-17.5,0h-2.9
		h-7.7h-0.6l-27.8,0.1h-2.4l-15.3,0h-0.6l-16,0l-44.6-1.9c-0.2-0.5-0.5-1-0.7-1.5l35.7-0.6l0,0l22-0.3l0,0l4.1-0.1h0.6l11.3-0.2
		l3.9,0.2h0.1l1.9,0.1l0.6,0l7.7,0.4l0,0l18.7,1l0.6,0l8.7,0.5l2.6,0.1h0.1l17.4,1l0.6,0h0.1L630.3,226.8z"/>
	<path opacity="0.1" enable-background="new    " d="M592.9,200.9c1,0.3,6.5,1.7,7.6,5.1C601.7,209.3,592.9,200.9,592.9,200.9z"/>
	<path fill="#FBBEBE" d="M576.6,206.5c0,0-8.1,2.5-11.7,2.5c-3.6,0-17.9-0.1-17.9-0.1s-37.2-12.4-26.1,4.6
		c11.2,17,28.8,7.5,28.8,7.5s1.4,0.3,3.2,0.7s35.4,0.1,36.5-1.3C590.5,219.1,576.6,206.5,576.6,206.5z"/>
	<path opacity="0.1" enable-background="new    " d="M599.7,221.4c-5.1,0.5-15,0.6-15,0.6s-7.4-14.7-13.8-14.3c0,0,5.9-6.7,8.2-5.9
		c0.4,0.1,0.6-0.2,0.8-0.7c6.2,1.9,18,6.5,19.2,14.7C599.4,218,599.6,219.9,599.7,221.4z"/>
	<path fill="#464353" d="M600.4,221.4c-5.1,0.5-15,0.6-15,0.6s-7.4-14.7-13.8-14.3c0,0,5.9-6.7,8.2-5.9c0.4,0.1,0.6-0.2,0.8-0.7
		c6.2,1.9,18,6.5,19.2,14.7C600.1,218,600.3,219.9,600.4,221.4z"/>
	<path opacity="0.1" enable-background="new    " d="M599.7,221.4c-5.1,0.5-15,0.6-15,0.6s-7.4-14.7-13.8-14.3c0,0,5.9-6.7,8.2-5.9
		c0.4,0.1,0.6-0.2,0.8-0.7c6.2,1.9,18,6.5,19.2,14.7C599.4,218,599.6,219.9,599.7,221.4z"/>
	<path opacity="0.1" enable-background="new    " d="M555.9,263.8c0,0,14.3-3.5,16.5-1.6C574.6,264.2,555.9,263.8,555.9,263.8z"/>
	<path opacity="0.1" enable-background="new    " d="M515,277.5c0,0,6,3.5,6.7,6.3C522.3,286.7,515,277.5,515,277.5z"/>
	<path fill="#333F4F" d="M489.5,159.2v62.4c0,1.1,0.6,1.2,1.5,1.7c3.2,1.8,11,4.9,20.3-0.1c1-0.5,1.6-0.7,1.6-1.8v-62
		C512.9,159.6,501,164.4,489.5,159.2z"/>

	<ellipse fill="#2D394A" stroke="#40868E" stroke-width="0.5629" stroke-miterlimit="5.6287" cx="501.2" cy="159.2" rx="11.7" ry="2.5"/>
	<g opacity="0.2">
		<circle cx="490.6" cy="185.1" r="0.3"/>
		<circle cx="491.9" cy="185.5" r="0.3"/>
		<circle cx="493.6" cy="186" r="0.3"/>
		<circle cx="496.5" cy="186.7" r="0.3"/>
		<circle cx="499.6" cy="187" r="0.3"/>
		<circle cx="502.9" cy="187.2" r="0.3"/>
		<circle cx="507.5" cy="186.6" r="0.3"/>
		<circle cx="505.9" cy="186.9" r="0.3"/>
		<circle cx="510.3" cy="186" r="0.3"/>
		<circle cx="509" cy="186.3" r="0.3"/>
		<circle cx="511.9" cy="185.5" r="0.3"/>
		<circle cx="495.1" cy="186.4" r="0.3"/>
		<circle cx="498.1" cy="186.9" r="0.3"/>
		<circle cx="501.4" cy="187.2" r="0.3"/>
		<circle cx="504.4" cy="187.2" r="0.3"/>
	</g>
	<g opacity="0.2">
		<circle cx="490.6" cy="186.4" r="0.3"/>
		<circle cx="491.9" cy="186.8" r="0.3"/>
		<circle cx="493.6" cy="187.3" r="0.3"/>
		<circle cx="496.5" cy="188" r="0.3"/>
		<circle cx="499.6" cy="188.3" r="0.3"/>
		<circle cx="502.9" cy="188.5" r="0.3"/>
		<circle cx="507.5" cy="187.8" r="0.3"/>
		<circle cx="505.9" cy="188.2" r="0.3"/>
		<circle cx="510.3" cy="187.3" r="0.3"/>
		<circle cx="509" cy="187.6" r="0.3"/>
		<circle cx="511.9" cy="186.8" r="0.3"/>
		<circle cx="495.1" cy="187.7" r="0.3"/>
		<circle cx="498.1" cy="188.2" r="0.3"/>
		<circle cx="501.4" cy="188.5" r="0.3"/>
		<circle cx="504.4" cy="188.5" r="0.3"/>
	</g>
	<g opacity="0.2">
		<circle cx="490.6" cy="187.7" r="0.3"/>
		<circle cx="491.9" cy="188.1" r="0.3"/>
		<circle cx="493.6" cy="188.6" r="0.3"/>
		<circle cx="496.5" cy="189.3" r="0.3"/>
		<circle cx="499.6" cy="189.6" r="0.3"/>
		<circle cx="502.9" cy="189.8" r="0.3"/>
		<circle cx="507.5" cy="189.1" r="0.3"/>
		<circle cx="505.9" cy="189.5" r="0.3"/>
		<circle cx="510.3" cy="188.6" r="0.3"/>
		<circle cx="509" cy="188.9" r="0.3"/>
		<circle cx="511.9" cy="188.1" r="0.3"/>
		<circle cx="495.1" cy="189" r="0.3"/>
		<circle cx="498.1" cy="189.5" r="0.3"/>
		<circle cx="501.4" cy="189.8" r="0.3"/>
		<circle cx="504.4" cy="189.8" r="0.3"/>
	</g>
	<g opacity="0.2">
		<circle cx="490.6" cy="189" r="0.3"/>
		<circle cx="491.9" cy="189.4" r="0.3"/>
		<circle cx="493.6" cy="189.9" r="0.3"/>
		<circle cx="496.5" cy="190.5" r="0.3"/>
		<circle cx="499.6" cy="190.9" r="0.3"/>
		<circle cx="502.9" cy="191.1" r="0.3"/>
		<circle cx="507.5" cy="190.4" r="0.3"/>
		<circle cx="505.9" cy="190.8" r="0.3"/>
		<circle cx="510.3" cy="189.9" r="0.3"/>
		<circle cx="509" cy="190.2" r="0.3"/>
		<circle cx="511.9" cy="189.4" r="0.3"/>
		<circle cx="495.1" cy="190.3" r="0.3"/>
		<circle cx="498.1" cy="190.8" r="0.3"/>
		<circle cx="501.4" cy="191.1" r="0.3"/>
		<circle cx="504.4" cy="191.1" r="0.3"/>
	</g>
	<g opacity="0.2">
		<circle cx="490.6" cy="190.3" r="0.3"/>
		<circle cx="491.9" cy="190.7" r="0.3"/>
		<circle cx="493.6" cy="191.2" r="0.3"/>
		<circle cx="496.5" cy="191.8" r="0.3"/>
		<circle cx="499.6" cy="192.2" r="0.3"/>
		<circle cx="502.9" cy="192.4" r="0.3"/>
		<circle cx="507.5" cy="191.7" r="0.3"/>
		<circle cx="505.9" cy="192.1" r="0.3"/>
		<circle cx="510.3" cy="191.2" r="0.3"/>
		<circle cx="509" cy="191.5" r="0.3"/>
		<circle cx="511.9" cy="190.7" r="0.3"/>
		<circle cx="495.1" cy="191.6" r="0.3"/>
		<circle cx="498.1" cy="192.1" r="0.3"/>
		<circle cx="501.4" cy="192.4" r="0.3"/>
		<circle cx="504.4" cy="192.4" r="0.3"/>
	</g>
	<g opacity="0.2">
		<circle cx="490.6" cy="191.6" r="0.3"/>
		<circle cx="491.9" cy="192" r="0.3"/>
		<circle cx="493.6" cy="192.5" r="0.3"/>
		<circle cx="496.5" cy="193.1" r="0.3"/>
		<circle cx="499.6" cy="193.5" r="0.3"/>
		<circle cx="502.9" cy="193.7" r="0.3"/>
		<circle cx="507.5" cy="193" r="0.3"/>
		<circle cx="505.9" cy="193.4" r="0.3"/>
		<circle cx="510.3" cy="192.5" r="0.3"/>
		<circle cx="509" cy="192.8" r="0.3"/>
		<circle cx="511.9" cy="192" r="0.3"/>
		<circle cx="495.1" cy="192.9" r="0.3"/>
		<circle cx="498.1" cy="193.4" r="0.3"/>
		<circle cx="501.4" cy="193.7" r="0.3"/>
		<circle cx="504.4" cy="193.7" r="0.3"/>
	</g>
	<g opacity="0.2">
		<circle cx="490.6" cy="192.9" r="0.3"/>
		<circle cx="491.9" cy="193.3" r="0.3"/>
		<circle cx="493.6" cy="193.8" r="0.3"/>
		<circle cx="496.5" cy="194.4" r="0.3"/>
		<circle cx="499.6" cy="194.8" r="0.3"/>
		<circle cx="502.9" cy="194.9" r="0.3"/>
		<circle cx="507.5" cy="194.3" r="0.3"/>
		<circle cx="505.9" cy="194.7" r="0.3"/>
		<circle cx="510.3" cy="193.8" r="0.3"/>
		<circle cx="509" cy="194" r="0.3"/>
		<circle cx="511.9" cy="193.3" r="0.3"/>
		<circle cx="495.1" cy="194.2" r="0.3"/>
		<circle cx="498.1" cy="194.7" r="0.3"/>
		<circle cx="501.4" cy="194.9" r="0.3"/>
		<circle cx="504.4" cy="194.9" r="0.3"/>
	</g>
	<g opacity="0.2">
		<circle cx="490.6" cy="194.2" r="0.3"/>
		<circle cx="491.9" cy="194.5" r="0.3"/>
		<circle cx="493.6" cy="195.1" r="0.3"/>
		<circle cx="496.5" cy="195.7" r="0.3"/>
		<circle cx="499.6" cy="196.1" r="0.3"/>
		<circle cx="502.9" cy="196.2" r="0.3"/>
		<circle cx="507.5" cy="195.6" r="0.3"/>
		<circle cx="505.9" cy="196" r="0.3"/>
		<circle cx="510.3" cy="195.1" r="0.3"/>
		<circle cx="509" cy="195.3" r="0.3"/>
		<circle cx="511.9" cy="194.5" r="0.3"/>
		<circle cx="495.1" cy="195.4" r="0.3"/>
		<circle cx="498.1" cy="196" r="0.3"/>
		<circle cx="501.4" cy="196.2" r="0.3"/>
		<circle cx="504.4" cy="196.2" r="0.3"/>
	</g>
	<g opacity="0.2">
		<circle cx="490.6" cy="195.5" r="0.3"/>
		<circle cx="491.9" cy="195.8" r="0.3"/>
		<circle cx="493.6" cy="196.4" r="0.3"/>
		<circle cx="496.5" cy="197" r="0.3"/>
		<circle cx="499.6" cy="197.4" r="0.3"/>
		<circle cx="502.9" cy="197.5" r="0.3"/>
		<circle cx="507.5" cy="196.9" r="0.3"/>
		<circle cx="505.9" cy="197.3" r="0.3"/>
		<circle cx="510.3" cy="196.4" r="0.3"/>
		<circle cx="509" cy="196.6" r="0.3"/>
		<circle cx="511.9" cy="195.8" r="0.3"/>
		<circle cx="495.1" cy="196.7" r="0.3"/>
		<circle cx="498.1" cy="197.3" r="0.3"/>
		<circle cx="501.4" cy="197.5" r="0.3"/>
		<circle cx="504.4" cy="197.5" r="0.3"/>
	</g>
	<g opacity="0.2">
		<circle cx="490.6" cy="196.8" r="0.3"/>
		<circle cx="491.9" cy="197.1" r="0.3"/>
		<circle cx="493.6" cy="197.7" r="0.3"/>
		<circle cx="496.5" cy="198.3" r="0.3"/>
		<circle cx="499.6" cy="198.7" r="0.3"/>
		<circle cx="502.9" cy="198.8" r="0.3"/>
		<circle cx="507.5" cy="198.2" r="0.3"/>
		<circle cx="505.9" cy="198.6" r="0.3"/>
		<circle cx="510.3" cy="197.7" r="0.3"/>
		<circle cx="509" cy="197.9" r="0.3"/>
		<circle cx="511.9" cy="197.1" r="0.3"/>
		<circle cx="495.1" cy="198" r="0.3"/>
		<circle cx="498.1" cy="198.6" r="0.3"/>
		<circle cx="501.4" cy="198.8" r="0.3"/>
		<circle cx="504.4" cy="198.8" r="0.3"/>
	</g>
	<g opacity="0.2">
		<circle cx="490.6" cy="198" r="0.3"/>
		<circle cx="491.9" cy="198.4" r="0.3"/>
		<circle cx="493.6" cy="199" r="0.3"/>
		<circle cx="496.5" cy="199.6" r="0.3"/>
		<circle cx="499.6" cy="200" r="0.3"/>
		<circle cx="502.9" cy="200.1" r="0.3"/>
		<circle cx="507.5" cy="199.5" r="0.3"/>
		<circle cx="505.9" cy="199.9" r="0.3"/>
		<circle cx="510.3" cy="199" r="0.3"/>
		<circle cx="509" cy="199.2" r="0.3"/>
		<circle cx="511.9" cy="198.4" r="0.3"/>
		<circle cx="495.1" cy="199.3" r="0.3"/>
		<circle cx="498.1" cy="199.9" r="0.3"/>
		<circle cx="501.4" cy="200.1" r="0.3"/>
		<circle cx="504.4" cy="200.1" r="0.3"/>
	</g>
	<g opacity="0.2">
		<circle cx="490.6" cy="199.3" r="0.3"/>
		<circle cx="491.9" cy="199.7" r="0.3"/>
		<circle cx="493.6" cy="200.2" r="0.3"/>
		<circle cx="496.5" cy="200.9" r="0.3"/>
		<circle cx="499.6" cy="201.3" r="0.3"/>
		<circle cx="502.9" cy="201.4" r="0.3"/>
		<circle cx="507.5" cy="200.8" r="0.3"/>
		<circle cx="505.9" cy="201.1" r="0.3"/>
		<circle cx="510.3" cy="200.2" r="0.3"/>
		<circle cx="509" cy="200.5" r="0.3"/>
		<circle cx="511.9" cy="199.7" r="0.3"/>
		<circle cx="495.1" cy="200.6" r="0.3"/>
		<circle cx="498.1" cy="201.1" r="0.3"/>
		<circle cx="501.4" cy="201.4" r="0.3"/>
		<circle cx="504.4" cy="201.4" r="0.3"/>
	</g>
	<g opacity="0.2">
		<circle cx="490.6" cy="200.6" r="0.3"/>
		<circle cx="491.9" cy="201" r="0.3"/>
		<circle cx="493.6" cy="201.5" r="0.3"/>
		<circle cx="496.5" cy="202.2" r="0.3"/>
		<circle cx="499.6" cy="202.5" r="0.3"/>
		<circle cx="502.9" cy="202.7" r="0.3"/>
		<circle cx="507.5" cy="202.1" r="0.3"/>
		<circle cx="505.9" cy="202.4" r="0.3"/>
		<circle cx="510.3" cy="201.5" r="0.3"/>
		<circle cx="509" cy="201.8" r="0.3"/>
		<circle cx="511.9" cy="201" r="0.3"/>
		<circle cx="495.1" cy="201.9" r="0.3"/>
		<circle cx="498.1" cy="202.4" r="0.3"/>
		<circle cx="501.4" cy="202.7" r="0.3"/>
		<circle cx="504.4" cy="202.7" r="0.3"/>
	</g>
	<g opacity="0.2">
		<circle cx="490.6" cy="201.9" r="0.3"/>
		<circle cx="491.9" cy="202.3" r="0.3"/>
		<circle cx="493.6" cy="202.8" r="0.3"/>
		<circle cx="496.5" cy="203.5" r="0.3"/>
		<circle cx="499.6" cy="203.8" r="0.3"/>
		<circle cx="502.9" cy="204" r="0.3"/>
		<circle cx="507.5" cy="203.4" r="0.3"/>
		<circle cx="505.9" cy="203.7" r="0.3"/>
		<circle cx="510.3" cy="202.8" r="0.3"/>
		<circle cx="509" cy="203.1" r="0.3"/>
		<circle cx="511.9" cy="202.3" r="0.3"/>
		<circle cx="495.1" cy="203.2" r="0.3"/>
		<circle cx="498.1" cy="203.7" r="0.3"/>
		<circle cx="501.4" cy="204" r="0.3"/>
		<circle cx="504.4" cy="204" r="0.3"/>
	</g>
	<g opacity="0.2">
		<circle cx="490.6" cy="203.2" r="0.3"/>
		<circle cx="491.9" cy="203.6" r="0.3"/>
		<circle cx="493.6" cy="204.1" r="0.3"/>
		<circle cx="496.5" cy="204.8" r="0.3"/>
		<circle cx="499.6" cy="205.1" r="0.3"/>
		<circle cx="502.9" cy="205.3" r="0.3"/>
		<circle cx="507.5" cy="204.6" r="0.3"/>
		<circle cx="505.9" cy="205" r="0.3"/>
		<circle cx="510.3" cy="204.1" r="0.3"/>
		<circle cx="509" cy="204.4" r="0.3"/>
		<circle cx="511.9" cy="203.6" r="0.3"/>
		<circle cx="495.1" cy="204.5" r="0.3"/>
		<circle cx="498.1" cy="205" r="0.3"/>
		<circle cx="501.4" cy="205.3" r="0.3"/>
		<circle cx="504.4" cy="205.3" r="0.3"/>
	</g>
	<g opacity="0.2">
		<circle cx="490.6" cy="204.5" r="0.3"/>
		<circle cx="491.9" cy="204.9" r="0.3"/>
		<circle cx="493.6" cy="205.4" r="0.3"/>
		<circle cx="496.5" cy="206" r="0.3"/>
		<circle cx="499.6" cy="206.4" r="0.3"/>
		<circle cx="502.9" cy="206.6" r="0.3"/>
		<circle cx="507.5" cy="205.9" r="0.3"/>
		<circle cx="505.9" cy="206.3" r="0.3"/>
		<circle cx="510.3" cy="205.4" r="0.3"/>
		<circle cx="509" cy="205.7" r="0.3"/>
		<circle cx="511.9" cy="204.9" r="0.3"/>
		<circle cx="495.1" cy="205.8" r="0.3"/>
		<circle cx="498.1" cy="206.3" r="0.3"/>
		<circle cx="501.4" cy="206.6" r="0.3"/>
		<circle cx="504.4" cy="206.6" r="0.3"/>
	</g>
	<g opacity="0.2">
		<circle cx="490.6" cy="205.8" r="0.3"/>
		<circle cx="491.9" cy="206.2" r="0.3"/>
		<circle cx="493.6" cy="206.7" r="0.3"/>
		<circle cx="496.5" cy="207.3" r="0.3"/>
		<circle cx="499.6" cy="207.7" r="0.3"/>
		<circle cx="502.9" cy="207.9" r="0.3"/>
		<circle cx="507.5" cy="207.2" r="0.3"/>
		<circle cx="505.9" cy="207.6" r="0.3"/>
		<circle cx="510.3" cy="206.7" r="0.3"/>
		<circle cx="509" cy="207" r="0.3"/>
		<circle cx="511.9" cy="206.2" r="0.3"/>
		<circle cx="495.1" cy="207.1" r="0.3"/>
		<circle cx="498.1" cy="207.6" r="0.3"/>
		<circle cx="501.4" cy="207.9" r="0.3"/>
		<circle cx="504.4" cy="207.9" r="0.3"/>
	</g>
	<g opacity="0.2">
		<circle cx="490.6" cy="207.1" r="0.3"/>
		<circle cx="491.9" cy="207.5" r="0.3"/>
		<circle cx="493.6" cy="208" r="0.3"/>
		<circle cx="496.5" cy="208.6" r="0.3"/>
		<circle cx="499.6" cy="209" r="0.3"/>
		<circle cx="502.9" cy="209.2" r="0.3"/>
		<circle cx="507.5" cy="208.5" r="0.3"/>
		<circle cx="505.9" cy="208.9" r="0.3"/>
		<circle cx="510.3" cy="208" r="0.3"/>
		<circle cx="509" cy="208.3" r="0.3"/>
		<circle cx="511.9" cy="207.5" r="0.3"/>
		<circle cx="495.1" cy="208.4" r="0.3"/>
		<circle cx="498.1" cy="208.9" r="0.3"/>
		<circle cx="501.4" cy="209.2" r="0.3"/>
		<circle cx="504.4" cy="209.2" r="0.3"/>
	</g>
	<g opacity="0.2">
		<circle cx="490.6" cy="208.4" r="0.3"/>
		<circle cx="491.9" cy="208.8" r="0.3"/>
		<circle cx="493.6" cy="209.3" r="0.3"/>
		<circle cx="496.5" cy="209.9" r="0.3"/>
		<circle cx="499.6" cy="210.3" r="0.3"/>
		<circle cx="502.9" cy="210.4" r="0.3"/>
		<circle cx="507.5" cy="209.8" r="0.3"/>
		<circle cx="505.9" cy="210.2" r="0.3"/>
		<circle cx="510.3" cy="209.3" r="0.3"/>
		<circle cx="509" cy="209.5" r="0.3"/>
		<circle cx="511.9" cy="208.8" r="0.3"/>
		<circle cx="495.1" cy="209.7" r="0.3"/>
		<circle cx="498.1" cy="210.2" r="0.3"/>
		<circle cx="501.4" cy="210.4" r="0.3"/>
		<circle cx="504.4" cy="210.4" r="0.3"/>
	</g>
	<g opacity="0.2">
		<circle cx="490.6" cy="209.7" r="0.3"/>
		<circle cx="491.9" cy="210.1" r="0.3"/>
		<circle cx="493.6" cy="210.6" r="0.3"/>
		<circle cx="496.5" cy="211.2" r="0.3"/>
		<circle cx="499.6" cy="211.6" r="0.3"/>
		<circle cx="502.9" cy="211.7" r="0.3"/>
		<circle cx="507.5" cy="211.1" r="0.3"/>
		<circle cx="505.9" cy="211.5" r="0.3"/>
		<circle cx="510.3" cy="210.6" r="0.3"/>
		<circle cx="509" cy="210.8" r="0.3"/>
		<circle cx="511.9" cy="210.1" r="0.3"/>
		<circle cx="495.1" cy="211" r="0.3"/>
		<circle cx="498.1" cy="211.5" r="0.3"/>
		<circle cx="501.4" cy="211.7" r="0.3"/>
		<circle cx="504.4" cy="211.7" r="0.3"/>
	</g>
	<g opacity="0.2">
		<circle cx="490.6" cy="211" r="0.3"/>
		<circle cx="491.9" cy="211.3" r="0.3"/>
		<circle cx="493.6" cy="211.9" r="0.3"/>
		<circle cx="496.5" cy="212.5" r="0.3"/>
		<circle cx="499.6" cy="212.9" r="0.3"/>
		<circle cx="502.9" cy="213" r="0.3"/>
		<circle cx="507.5" cy="212.4" r="0.3"/>
		<circle cx="505.9" cy="212.8" r="0.3"/>
		<circle cx="510.3" cy="211.9" r="0.3"/>
		<circle cx="509" cy="212.1" r="0.3"/>
		<circle cx="511.9" cy="211.3" r="0.3"/>
		<circle cx="495.1" cy="212.2" r="0.3"/>
		<circle cx="498.1" cy="212.8" r="0.3"/>
		<circle cx="501.4" cy="213" r="0.3"/>
		<circle cx="504.4" cy="213" r="0.3"/>
	</g>
	<g opacity="0.2">
		<circle cx="490.6" cy="212.3" r="0.3"/>
		<circle cx="491.9" cy="212.6" r="0.3"/>
		<circle cx="493.6" cy="213.2" r="0.3"/>
		<circle cx="496.5" cy="213.8" r="0.3"/>
		<circle cx="499.6" cy="214.2" r="0.3"/>
		<circle cx="502.9" cy="214.3" r="0.3"/>
		<circle cx="507.5" cy="213.7" r="0.3"/>
		<circle cx="505.9" cy="214.1" r="0.3"/>
		<circle cx="510.3" cy="213.2" r="0.3"/>
		<circle cx="509" cy="213.4" r="0.3"/>
		<circle cx="511.9" cy="212.6" r="0.3"/>
		<circle cx="495.1" cy="213.5" r="0.3"/>
		<circle cx="498.1" cy="214.1" r="0.3"/>
		<circle cx="501.4" cy="214.3" r="0.3"/>
		<circle cx="504.4" cy="214.3" r="0.3"/>
	</g>
	<g opacity="0.2">
		<circle cx="490.6" cy="213.6" r="0.3"/>
		<circle cx="491.9" cy="213.9" r="0.3"/>
		<circle cx="493.6" cy="214.5" r="0.3"/>
		<circle cx="496.5" cy="215.1" r="0.3"/>
		<circle cx="499.6" cy="215.5" r="0.3"/>
		<circle cx="502.9" cy="215.6" r="0.3"/>
		<circle cx="507.5" cy="215" r="0.3"/>
		<circle cx="505.9" cy="215.4" r="0.3"/>
		<circle cx="510.3" cy="214.5" r="0.3"/>
		<circle cx="509" cy="214.7" r="0.3"/>
		<circle cx="511.9" cy="213.9" r="0.3"/>
		<circle cx="495.1" cy="214.8" r="0.3"/>
		<circle cx="498.1" cy="215.4" r="0.3"/>
		<circle cx="501.4" cy="215.6" r="0.3"/>
		<circle cx="504.4" cy="215.6" r="0.3"/>
	</g>
	<g opacity="0.2">
		<circle cx="490.6" cy="214.9" r="0.3"/>
		<circle cx="491.9" cy="215.2" r="0.3"/>
		<circle cx="493.6" cy="215.7" r="0.3"/>
		<circle cx="496.5" cy="216.4" r="0.3"/>
		<circle cx="499.6" cy="216.8" r="0.3"/>
		<circle cx="502.9" cy="216.9" r="0.3"/>
		<circle cx="507.5" cy="216.3" r="0.3"/>
		<circle cx="505.9" cy="216.6" r="0.3"/>
		<circle cx="510.3" cy="215.7" r="0.3"/>
		<circle cx="509" cy="216" r="0.3"/>
		<circle cx="511.9" cy="215.2" r="0.3"/>
		<circle cx="495.1" cy="216.1" r="0.3"/>
		<circle cx="498.1" cy="216.6" r="0.3"/>
		<circle cx="501.4" cy="216.9" r="0.3"/>
		<circle cx="504.4" cy="216.9" r="0.3"/>
	</g>
	<path fill="#3F3D56" d="M532.3,127.6c0,0,7.7-2.9,10.3,3.1l0.7,0.2l1.6,0.4c4.1-6.1,14.8,0,14.8,0l15.1,6.7l-0.6,0.9l-15.1-5.3
		c0,0-2,6.2-4.6,7.7s-6.9-0.8-6.9-0.8c-2.7-1.1-2.9-5.7-2.8-8l-2.3-0.5c-0.2,2.3-1,6.6-5.1,7.1c-5.5,0.7-5.9-4.2-5.9-4.2
		S531.4,128.6,532.3,127.6z"/>
	<path fill="#464353" d="M537.8,127.6c-0.3,0.6-0.6,1.4-0.1,1.7c0.2,0.1,0.5,0.2,0.8,0.1c1.6-0.4,2.5-2.1,3.2-3.6s1.7-3.2,3.4-3.4
		c2-0.2,4,2,5.6,0.8c0.5-0.3,0.8-0.9,1.3-1.2c0.4-0.1,0.8-0.2,1.2-0.1c3.8,0.7,6.7,3.7,7.2,7.5c0.1,0.8,0.2,1.8,1,1.9
		c0.3,0,0.6,0,0.9-0.1c1.5-0.2,2.4,1.5,2.8,2.9c0.6,1.9,1.3,3.9,0.9,5.9c-0.3,1.6-1.2,3-1.3,4.6c0,1.3,0.5,2.6,1.1,3.8
		s1.4,2.6,2.7,2.4c1.1-0.1,1.7-1.3,2.2-2.3c0.5-1,1.4-2,2.5-1.7c0.5,0.1,0.9,0.5,1.4,0.3c0.2-0.2,0.4-0.4,0.4-0.7
		c0.5-2.2-0.2-4.7,0.9-6.7c0.8-1.5,2.5-2.4,3.9-3.5c4.8-3.8,5.6-10.8,1.7-15.6c-0.1-0.1-0.2-0.2-0.2-0.3c-1.5-1.7-3.6-3.2-3.7-5.5
		c-0.1-1.7,1.1-3.3,1.1-5c0-1.7-1.1-3.2-2.3-4.3c-3.6-3.3-8.5-4.6-13.3-3.5c-1.2,0.3-2.5,0.8-3.7,0.6c-1.5-0.2-2.7-1.1-4-1.8
		c-4.3-2.2-10.1-0.6-12.7,3.5c-1.5,2.3-2.1,5.4-4.3,7c-1.5,1.1-3.6,1.5-4.4,3.1c-0.5,1-0.3,2.1-0.2,3.2c0.2,1.8,1.1,3.4,2.4,4.6
		C537.6,124.1,538.7,125.6,537.8,127.6z"/>
	<g opacity="0.1">
		<path d="M578.3,112.2c0.1-0.4,0.3-0.9,0.3-1.3C578.4,111.3,578.3,111.8,578.3,112.2z"/>
		<path d="M538.1,126.3c0.1-0.3,0.2-0.6,0.3-0.8c0.9-2.1-0.3-3.5-1.6-4.9c-1.3-1.2-2.2-2.8-2.4-4.6c-0.1-0.5-0.1-1-0.1-1.5
			c-0.1,0.1-0.2,0.3-0.3,0.5c-0.5,1-0.3,2.1-0.2,3.2c0.2,1.8,1.1,3.4,2.4,4.6C537.2,123.8,538.2,124.9,538.1,126.3z"/>
		<path d="M573.9,145c-1-0.3-2,0.7-2.5,1.7c-0.5,1-1.1,2.1-2.2,2.3c-1.3,0.2-2.2-1.2-2.7-2.4c-0.5-1.2-1.1-2.5-1.1-3.8
			c0-0.2,0-0.3,0-0.5c-0.4,0.9-0.6,1.8-0.7,2.7c0,1.3,0.5,2.6,1.1,3.8c0.5,1.2,1.4,2.6,2.7,2.4c1.1-0.1,1.7-1.3,2.2-2.3
			c0.5-1,1.4-2,2.5-1.7c0.5,0.1,0.9,0.5,1.4,0.3c0.2-0.2,0.4-0.4,0.4-0.7c0.1-0.5,0.2-1,0.2-1.5C574.8,145.5,574.3,145.1,573.9,145z
			"/>
		<path d="M580.4,134.4c-1.4,1.1-3,1.9-3.9,3.5c-0.3,0.7-0.5,1.4-0.6,2.1c0.8-1.5,2.5-2.3,3.8-3.4c2.1-1.7,3.5-4.1,4-6.8
			C583,131.7,581.9,133.2,580.4,134.4z"/>
		<path d="M566.1,140c0.3-0.6,0.5-1.3,0.6-2c0.4-2-0.3-4-0.9-5.9c-0.5-1.4-1.4-3.1-2.8-2.9c-0.3,0.1-0.6,0.1-0.9,0.1
			c-0.8-0.1-0.9-1.1-1-1.9c-0.5-3.8-3.4-6.8-7.2-7.5c-0.4-0.1-0.9-0.1-1.3,0.1c-0.6,0.2-0.8,0.8-1.3,1.2c-1.6,1.1-3.7-1-5.6-0.8
			c-1.7,0.1-2.7,1.8-3.4,3.4s-1.5,3.3-3.2,3.6c-0.3,0.1-0.5,0-0.8-0.1c-0.2-0.1-0.2-0.3-0.3-0.5c0,0.3-0.1,0.7-0.3,1
			c-0.3,0.6-0.6,1.4-0.1,1.7c0.2,0.1,0.5,0.2,0.8,0.1c1.6-0.4,2.5-2.1,3.2-3.6s1.7-3.2,3.4-3.4c2-0.2,4,2,5.6,0.8
			c0.5-0.3,0.8-0.9,1.3-1.2c0.4-0.1,0.8-0.2,1.2-0.1c3.8,0.7,6.7,3.7,7.2,7.5c0.1,0.8,0.2,1.8,1,1.9c0.3,0,0.6,0,0.9-0.1
			c1.5-0.2,2.4,1.5,2.8,2.9C565.7,136.2,566.4,138.1,566.1,140z"/>
	</g>
</g>
	<g opacity="0.9">
	<path opacity="0.1" fill="#EE8127" enable-background="new    " d="M0,116.4c0,0.5,0,1,0,1.6c0.2,5.7,0.9,11.5,2,17.1
		c3.2,16.8,10,33.5,17.9,49.5c0.1,0.3,0.3,0.5,0.4,0.8c0.2,0.4,0.4,0.8,0.6,1.1c0.4,0.8,0.8,1.5,1.2,2.3l0.9,1.7l0,0
		c0.2,0.4,0.4,0.8,0.6,1.2c0.1,0.2,0.3,0.5,0.4,0.8c2.2,4.2,4.6,8.3,7.2,12.2l0.3,0.4c3.3,4.9,7.1,9.5,11.5,13.5
		c7.6,7,17.3,12.1,27.6,15c0.3,0.1,0.7,0.2,1.1,0.3c0.7,0.2,1.4,0.3,2,0.5c0.5,0.1,0.9,0.2,1.4,0.3c3.3,0.7,6.6,1.2,10,1.4
		c1.8,0.1,3.7,0.2,5.5,0.2h0.8c2.2,0,4.5-0.1,6.7-0.4l0.3,0c6.1-0.6,12-2.2,17.5-4.7c0.9-0.4,1.8-0.8,2.6-1.3l0.4-0.2l0.2-0.1l0,0
		c2.9-1.5,5.6-3.3,8.3-5.2c3.1-2.2,6-4.6,8.8-7c4.2-3.6,8.1-7.5,11.8-11.6l0.2-0.2c1.6-1.8,3.1-3.6,4.5-5.5v0c1-1.3,2-2.7,2.9-4
		c0-0.1,0.1-0.1,0.1-0.2c1.3-2,2.6-4.1,3.7-6.2l0.3-0.5c0.8-1.6,1.6-3.1,2.3-4.7c3.9-9.1,5.6-18.9,6.6-28.7
		c1.9-19.8,0.8-40.3-4.4-60.1c-0.7-2.7-1.5-5.4-2.4-8c-0.1-0.4-0.2-0.7-0.4-1.1c-0.2-0.6-0.4-1.1-0.6-1.7c-0.1-0.2-0.2-0.5-0.2-0.7
		c-0.8-2.2-1.6-4.3-2.4-6.4l-0.5-1.1c-0.5-1.1-1-2.3-1.5-3.4c-0.5-1.1-1-2.1-1.5-3.2c-0.1-0.2-0.2-0.3-0.2-0.5
		c-4.3-8.9-10-17.6-18.1-24.1c-0.6-0.4-1.1-0.9-1.7-1.3c-0.8-0.6-1.7-1.2-2.6-1.8l-0.6-0.4l-0.2-0.1l-0.2-0.1l-0.1-0.1
		c-0.5-0.3-0.9-0.6-1.4-0.8s-1-0.5-1.4-0.7l0,0h-0.1l-0.2-0.1c-0.4-0.2-0.8-0.4-1.1-0.6l-0.4-0.2l-0.2-0.1l-0.6-0.3
		c-2.9-1.2-5.9-2.1-9-2.7c-1.7-0.3-3.4-0.5-5.2-0.6c-2.6-0.2-5.3,0-7.8,0.4c-0.4,0.1-0.8,0.1-1.2,0.2c-3.3,0.7-6.4,2-9.1,3.9
		c-3.5,2.6-6,6-8.3,9.6L84.9,50c-0.4,0.6-0.8,1.2-1.1,1.8c-1.3,2.1-2.6,4.2-4,6.3c-1.3,1.9-2.6,3.8-4,5.6c-1.4,1.8-3,3.5-4.7,5.1
		c-0.3,0.2-0.5,0.5-0.8,0.7c-3.1,2.8-6.7,5-10.6,6.5c-3.5,1.3-7.3,1.9-11,1.2l0,0c-1-0.2-2.1-0.5-3-1c-1.8-0.8-3.6-1.6-5.4-2.3
		c-3.2-1.4-6.5-2.3-9.9-2.8l0,0c-3.5-0.5-7.1-0.1-10.4,1.1c-0.6,0.2-1.1,0.4-1.7,0.7c-2.5,1.1-4.7,2.6-6.7,4.5
		c-0.2,0.2-0.5,0.4-0.7,0.7c-4.9,5-7.6,12-9.1,18.8C0.5,103.3-0.1,109.8,0,116.4z"/>

		<linearGradient id="SVGID_1_" gradientUnits="userSpaceOnUse" x1="-1197.7949" y1="135.9955" x2="-1197.7949" y2="555.9028" gradientTransform="matrix(-0.5629 0 0 -0.5629 -549.0325 312.9011)">
		<stop  offset="0" style="stop-color:#808080;stop-opacity:0.25"/>
			<stop  offset="0.54" style="stop-color:#808080;stop-opacity:0.12"/>
			<stop  offset="1" style="stop-color:#808080;stop-opacity:0.1"/>
	</linearGradient>
		<path fill="url(#SVGID_1_)" d="M71.8,232.3l-1.1,1.3c0.3,0.1,0.7,0.2,1.1,0.3c0.7,0.2,1.4,0.3,2,0.5c0.5,0.1,0.9,0.2,1.4,0.3
		c3.3,0.7,6.6,1.2,10,1.4c1.8,0.1,3.7,0.2,5.5,0.2c0.4-0.5,0.7-1.1,0.9-1.6c0.7-1.7,3.6-4.8,6.8-7.8c-0.1,0.5-0.1,0.8-0.1,0.8v0.2
		l0,8l0.3,0c6.1-0.6,12-2.2,17.5-4.7c0.9-0.4,1.8-0.8,2.6-1.3l0.4-0.2l0.2-0.1c0.4-1.9,0.7-3.8,1-5.3l0-0.2c0-0.2,0.1-0.4,0.1-0.6
		c0-0.2,0.1-0.3,0.1-0.5c0-0.2,0-0.2,0.1-0.3c0.2-1,0.3-1.6,0.3-1.6c0-0.3,0-0.6,0.1-0.9l0,0c0.2-1.7,1-3.3,2.2-4.6
		c0.5-0.5,0.9-1.1,1-1.8l0,0c0.6-1.9,0.5-4.4,0.4-5.5c0-0.4-0.1-0.6-0.1-0.6s2.1-1.1,3.4-4.6c0.3-0.7,0.5-1.5,0.6-2.3
		c0.9-4.9,3.7-15.4,4.1-16.7l0,0l0-0.1c0,0,0.1-0.2,0.2-0.5c0,0,0-0.1,0-0.1l0.1-0.1l0,0c1.3-3.5,6.2-17.6,5.8-27
		c-0.4-10.8,0.7-16.4,0.7-16.4l1.3-23.4v-0.2l0.1-1.4v-0.4c0.2,0.1,0.4,0.3,0.5,0.4l0.3,0.3l0.1,0.1c0,0,0-0.1,0-0.3
		c0.2,0.2,0.3,0.3,0.3,0.3s0.6-9.1,0.5-14.2c0-0.6,0-1.2,0-1.6c3.8-1.3,9.6-3.4,9.9-4.5c0.3-0.9,2.4-2.9,4.3-4.4l1-0.8l0.5-0.4
		c0.7-0.6,1.2-1,1.2-1c-0.1,0-0.3-0.1-0.4-0.2c0.2-0.1,0.4-0.2,0.6-0.3c0.6-0.3,1.1-0.7,1.8-1.1c2.7-1.8,6-4.6,7.9-7.3
		c1-1.5,1.6-3,1.3-4.3c0-0.1-0.1-0.2-0.1-0.4l7.8-11.2l0.9-1.3c0.6-0.8,0.5-1.9-0.2-2.7l0,0l-0.1,0l-0.3-0.2l0.1,0.1
		c-0.5-0.3-1.1-0.1-1.5,0.3l-0.1,0.2l-7.5,10.8l-1.3,1.9c-2.9-0.9-7.2,1.6-10.5,4.1c-1.2,0.9-2.3,1.8-3.2,2.6l-0.6,0.5
		c-0.3-0.6-0.4-1-0.4-1c-0.2,1.8-6.4,4.4-7.9,5.4c-0.7,0.4-1.4,0.7-2.2,0.7c0.2-6.8-5-13.9-5-13.9L128.4,58l0,0l-0.6-0.8l-2-2.5
		c-0.1-0.8-0.2-1.6-0.2-2.4c0-1.3,0.2-2.6,0.6-3.9c0.1-0.2,0.1-0.4,0.2-0.6c0.2-0.6,0.4-1.1,0.7-1.7c0.1-0.2,0.2-0.4,0.3-0.6h0.1
		c-0.2,0.8-0.5,1.6-0.6,2.3c0,0.2-0.1,0.4-0.1,0.6l0,0.3c0,0.3,0,0.7,0,1c0,0,0,0.1,0,0.1c0.1,1.4,1.1,6.3,2.5,6.1
		c0.3,0,0.6-0.1,0.7-0.4c0.2-0.2,0.3-0.4,0.4-0.6c0.1-0.2,0.2-0.3,0.2-0.5c0.1-0.2,0.2-0.4,0.2-0.7c0.3-1.3,0.4-2.6,0.3-3.9
		c0,0.6-0.1,1.2-0.2,1.8c0.1-1.4,0-2.9-0.1-4.1c0-0.3,0-0.5,0-0.8s0-0.5,0-0.8l0,0c0-0.3,0-0.5,0-0.8h0.1h0.1c0,0.2,0,0.4,0,0.6
		c0-0.2,0-0.4,0-0.6h0.1h0.1c1.3-0.2,2.5-0.6,3.7-1.1c1.5-0.6,2.8-1.5,4.1-2.5c0.3,0,0.5,0,0.8-0.1c0.8-0.2,1.5-0.6,2-1.1l0.1-0.1
		c0.3,0.9,0.1,1.8-0.5,2.6c0,0,0,0.1-0.1,0.1h0.1c1.6-0.1,3-1.3,3.7-2.8c0,0,0-0.1,0.1-0.2c0.6-1.6,0.7-3.3,0.5-5
		c-0.2-1.7-0.4-3.4-0.4-5.1c0-0.4,0.1-0.8,0.1-1.2c0-0.1,0-0.1,0-0.1c0-0.5,0-0.9,0-1.4c0,0,0-0.1,0-0.1c0-0.2-0.1-0.5-0.1-0.7h0.1
		c0.4,0,0.7-0.2,0.9-0.5l0.1-0.1c0.1-0.1,0.2-0.2,0.3-0.4c0.1-0.2,0.2-0.4,0.3-0.6c0.2-0.4,0.3-0.9,0.4-1.4c0.5-1.9,0.7-3.8,0.7-5.8
		c0,0.6-0.1,1.2-0.2,1.8c0.2-2.3-0.2-4.4-1.6-6c-1-1.1-2.4-1.8-3.8-2.4c-0.5-0.2-0.9-0.5-1.2-0.9c-0.2-0.5-0.4-1-0.4-1.5
		c-0.5-3.3-3.6-5.5-6.6-6.9c-3.9-1.7-8.7-2.4-12.5-0.4c-1.8,1-3.3,2.5-5,3.8c-2.1,1.6-4.5,2.7-6.8,4.1s-4.4,3.2-5.5,5.5
		s-0.9,5.2-0.6,7.9c0.2,1.4,0.3,2.7,0.4,4.1c0,0.1,0,0.2,0,0.3c0.1,3.1-0.5,6.2-1.7,9.1c-1.2,3-3.2,5.5-5.8,7.4
		c-0.6,0.4-1.2,0.9-1.6,1.4c-0.5,0.6-0.5,1.4-0.1,2c0.1,0.2,0.3,0.3,0.5,0.4c0.2,0.1,0.4,0.3,0.5,0.5c0.1,0.1,0.2,0.3,0.3,0.5
		c0.2,0.5,0.2,1.1,0,1.6c0,0.1,0,0.1,0,0.1l-0.1,0.3c-0.8,2.8-2.3,5.4-4.4,7.4c0.1,0.7,0.9,0.9,1.6,1l0,0c1.8,0.3,3.5,0.4,5.3,0.4
		h0.8c-0.1,0.2-0.2,0.4-0.2,0.6l0,0c-0.2,0.5-0.4,1-0.6,1.6l0,0c-0.8,2.4-1.6,5.3-1.2,7.3c0.7,3.8,2.6,21,1.6,24
		c-1,3,1.5,25.1,1.5,25.1s0.1,0.3,0.2,0.9c0.2,0.7,0.4,1.9,0.7,3.3c0,0.1,0,0.1-0.1,0.2c-1.5,3.6-3.2,7.5-4.1,9.1
		c-1.2,2.1-1.2,10,0.7,17.3c1,3.7,2.4,7.3,4.5,9.8c0,0,2.1,3,2,4.5c0,0.1,0,0.2-0.1,0.4c-0.5,0.9-0.2,2.3,0,3
		c0.1,0.3,0.2,0.5,0.2,0.5v0.6l0.9,20.8c0,2.2-0.2,4.4-0.5,6.5c-2.6,3.2-6.6,7.9-8.5,8.7c-2.9,1.2-24.7,27.6-24.7,27.6
		s0.2,0.3,0.5,0.8L71.8,232.3z"/>
		<path fill="#A1616A" d="M158.9,89.5c-0.6,0.4-1.3,0.7-2.1,0.8c-2.7,0.1-5-7.3-5-7.3s0.8-0.8,2-1.9c3.6-3.2,11.3-9.2,14.9-5.9
		C172.7,79,163.6,87,158.9,89.5z"/>
		<path fill="#A1616A" d="M75.2,234.7c3.3,0.7,6.6,1.2,10,1.4c-1.4-2.5-10.7-5.5-10.7-5.5l-1.3,1.5l-0.6,0.7l-0.9,1.1
		c0.7,0.2,1.4,0.3,2,0.5C74.2,234.5,74.7,234.6,75.2,234.7z"/>
		<path opacity="0.1" enable-background="new    " d="M158.9,89.5c-0.6,0.4-1.3,0.7-2.1,0.8c-2.7,0.1-5-7.3-5-7.3s0.8-0.8,2-1.9
		C154.7,83.1,157.2,88.5,158.9,89.5z"/>
		<path fill="#FF748E" d="M141.4,86.8c0,0,2.3,0.2,3.7-0.8c1.4-1,7.6-3.6,7.8-5.4c0,0,3.7,9,5.8,9.3c0,0-6.4,5-6.9,6.6
		c-0.5,1.6-12.9,5.5-12.9,5.5L141.4,86.8z"/>
		<path fill="#5E5A6B" d="M141.4,86.8c0,0,2.3,0.2,3.7-0.8c1.4-1,7.6-3.6,7.8-5.4c0,0,3.7,9,5.8,9.3c0,0-6.4,5-6.9,6.6
		c-0.5,1.6-12.9,5.5-12.9,5.5L141.4,86.8z"/>
		<path opacity="0.1" enable-background="new    " d="M72.6,232.8c0.3,0.4,0.7,1,1.1,1.6c0.5,0.1,0.9,0.2,1.4,0.3
		c3.3,0.7,6.6,1.2,10,1.4c-1.4-2.5-10.7-5.5-10.7-5.5l-1.3,1.5L72.6,232.8z"/>
		<path fill="#5E5A6B" d="M72.7,231.3c0,0,0.2,0.3,0.5,0.8c0.6,0.9,1.3,1.8,2,2.6c3.3,0.7,6.6,1.2,10,1.4c1.8,0.1,3.7,0.2,5.5,0.2
		h0.8c0.2-0.4,0.4-0.7,0.6-1.1c0.7-1.6,3.3-4.5,6.2-7.3c0.1-0.1,0.3-0.3,0.4-0.4c4.1-4,8.5-7.7,8.5-7.7l0.4-27.4c0,0-1,1.3-2.4,3
		c-2.5,3.2-6.5,7.8-8.3,8.6C94,205.2,72.7,231.3,72.7,231.3z"/>
		<path opacity="0.1" enable-background="new    " d="M72.7,231.3c0,0,0.2,0.3,0.5,0.8c0.6,0.9,1.3,1.8,2,2.6c3.3,0.7,6.6,1.2,10,1.4
		c1.8,0.1,3.7,0.2,5.5,0.2h0.8c0.2-0.4,0.4-0.7,0.6-1.1c0.7-1.6,3.3-4.5,6.2-7.3c0.1-0.1,0.3-0.3,0.4-0.4c4.1-4,8.5-7.7,8.5-7.7
		l0.4-27.4c0,0-1,1.3-2.4,3c-2.5,3.2-6.5,7.8-8.3,8.6C94,205.2,72.7,231.3,72.7,231.3z"/>
		<path opacity="0.1" enable-background="new    " d="M83.9,227.4c2.4,0.2,4.8,0.2,7.1,0C95.2,227,92,229.5,83.9,227.4z"/>
		<path opacity="0.1" enable-background="new    " d="M81.9,230.1c0,0,5.6,3.2,7.8,1.6C91.9,230.1,87.6,233.2,81.9,230.1z"/>
		<path fill="#5E5A6B" d="M104.5,162.7c0.2,0.5,0.3,1,0.1,1.6c-0.2,0.6-0.3,1.2-0.2,1.8c0,0.4,0.1,0.7,0.2,1.1
		c0.1,0.4,0.2,0.6,0.2,0.6l0.9,21.1c0,2.2-0.2,4.3-0.4,6.5c-0.3,2.3-0.8,4.6-1.7,5.9c-1.9,2.9-4.4,22.1-4.9,26.2l-0.1,0.8l0,7.6
		c6.1-0.6,12-2.2,17.5-4.7c0.9-0.4,1.8-0.8,2.6-1.3l0.4-0.2l0.2-0.1l0,0c0.4-2,0.7-3.8,1-5.3l0-0.2c0-0.2,0.1-0.4,0.1-0.6
		c0-0.2,0.1-0.3,0.1-0.5c0-0.2,0-0.2,0.1-0.3c0.1-0.6,0.2-1,0.2-1c0-0.5,0.1-1,0.2-1.6l0,0c0.3-1.5,1-2.8,2-3.9
		c0.6-0.7,1.1-1.6,1.2-2.5l0,0c0.3-1.8,0.4-3.6,0.2-5.4c0.1-0.1,0.2-0.1,0.3-0.2c0.7-0.5,2.4-1.9,3.3-5.2c0.1-0.5,0.3-1,0.3-1.4
		c1-5.2,4.1-16.6,4.1-16.6s0.1-0.3,0.3-0.9l0,0c0.1-0.2,0.2-0.4,0.2-0.6c0,0,0-0.1,0-0.1l0.1-0.1l0,0c1.6-4.6,5.7-17.2,5.3-25.7
		c-0.4-10.7,0.6-16.2,0.6-16.2l1.3-24.8V116v-0.2l0.1-2.3l-12.3-0.4h-0.7l-2.9-0.1h-0.1h-0.3l-3.9-0.1l-1.8-0.1l-3.2-0.1h-0.5h-0.6
		l-2.4-0.1l-7.1,4.2c0,0-0.3,0.7-0.7,1.8c-0.1,0.2-0.2,0.5-0.3,0.8s-0.2,0.6-0.4,0.9l-1,2.4c-0.1,0.3-0.2,0.6-0.4,0.9
		c-1.5,3.6-3.2,7.6-4.1,9.2c-1.1,2-1.1,9,0.4,15.8c0.9,4.2,2.5,8.3,4.7,11C103.4,160.6,104,161.6,104.5,162.7z"/>
		<path opacity="0.1" enable-background="new    " d="M112.5,219.7c0,0,4.4,3.5,6.2,3.4C120.5,223.1,112.5,219.7,112.5,219.7z"/>
		<path fill="#A1616A" d="M138.8,75.3v7l-4.6-2l-4.6-2l-10.1-9.9c0,0-8-5.2-12.2-9.9c-2.4-2.7-3.7-5.2-1.5-6.6c1-0.7,2-1.5,2.8-2.4
		c2.1-2.5,4-5.3,5.6-8.2c0.1-0.1,0.1-0.2,0.2-0.4c2.1-3.8,3.5-7.1,3.5-7.1s5.8,1.9,9.6,4.5c0.3,0.2,0.6,0.4,0.9,0.7
		c2.1,1.7,3.1,3.7,1.2,5.7c-0.5,0.5-1,1.1-1.4,1.6l0,0c-0.3,0.4-0.6,0.9-0.9,1.3c-0.1,0.2-0.2,0.4-0.3,0.6c-1.3,2.6-1.7,5.6-1.3,8.5
		L138.8,75.3z"/>
		<path fill="#464353" d="M138,25.1c0.2,0.4,0.6,0.8,0.8,1.2c0.5,0.9,0.4,2,0.3,3c-0.1,1.6,0,3.2,0.3,4.8c0.3,1.4,0.9,2.8,1,4.2
		c0.1,2-1,3.9-2,5.7c1.1,0,2.2-0.5,2.9-1.4c0.3,0.9,0.1,1.9-0.6,2.6c1.7-0.1,3.1-1.4,3.7-2.9c0.6-1.6,0.7-3.3,0.5-4.9
		c-0.2-1.7-0.4-3.3-0.4-5c0.1-0.9,0.2-1.8,0.1-2.7c-0.2-1.8-1.3-3.4-2.3-4.9l-2.2-3c-0.1-0.2-0.3-0.4-0.6-0.6
		C137.6,20.3,137.4,24.1,138,25.1z"/>
		<path opacity="0.1" enable-background="new    " d="M129.4,44.8c-0.5,0.5-1,1.1-1.4,1.6l0,0c-0.3,0.4-0.6,0.9-0.9,1.3
		c-0.1,0.2-0.2,0.4-0.3,0.6c-2.8-0.2-5.6-1-8-2.5c-1.8-1.1-3.3-2.6-4.6-4.3c-0.1-0.1-0.1-0.2-0.2-0.3c0.1-0.1,0.1-0.2,0.2-0.4
		c2.1-3.8,3.5-7.1,3.5-7.1s5.8,1.9,9.6,4.5c0.3,0.2,0.6,0.4,0.9,0.7C130.3,40.8,131.3,42.8,129.4,44.8z"/>
		<path fill="#A1616A" d="M144.6,31c0,8.1-5.8,15.1-13.8,16.5c-1,0.2-2,0.3-3,0.3h-0.1c-0.2,0-0.4,0-0.6,0c-2.9-0.1-5.8-1-8.3-2.6
		c-1.8-1.1-3.3-2.6-4.6-4.2c-5.5-7.5-3.9-18,3.6-23.5c7.5-5.5,18-3.9,23.5,3.6C143.4,24,144.5,27.4,144.6,31z"/>
		<path opacity="0.1" enable-background="new    " d="M130,72.5c0,0,8.4,4.8,6.3,0.7l-11-16.3l0,0L137.7,73c0,0,8,11,3.6,18.6
		c0,0-0.6,6.3,0.1,7.8c0.7,1.5-0.2,17.4-0.2,17.4s-3-2.8-4.6-2.3c-1.6,0.5-12.9,1.5-12.9,1.5L130,72.5z"/>
		<path opacity="0.1" enable-background="new    " d="M140.5,113.4l-0.2,2.9c-1-0.7-2.4-1.6-3.4-1.2c-1.6,0.5-12.9,1.5-12.9,1.5
		l0.5-3.7L140.5,113.4z"/>
		<path fill="#464353" d="M130.3,72.5c0,0,8.4,4.8,6.3,0.7l-11-16.3l0,0L138.1,73c0,0,8,11,3.6,18.6c0,0-0.6,6.3,0.1,7.8
		c0.7,1.5-0.2,17.4-0.2,17.4s-3-2.8-4.6-2.3c-1.6,0.5-12.9,1.5-12.9,1.5L130.3,72.5z"/>
		<path opacity="0.1" enable-background="new    " d="M134.8,80.7c-0.5,5.1-2.6,11.2-2.6,11.2s-1.5,15.1-3.4,19.6
		c-1.9,4.5-1.1,10.7-2.1,22.1c-0.4,4.1-1.7,6.9-3.5,8.8c-2.9,3.1-7.1,3.8-10.4,3.6c-0.3,0-0.5,0-0.8-0.1
		c-5.3-0.6-10.5-26.2-10.5-26.2s-2.4-21.9-1.5-24.8s-1-20-1.6-23.8c-0.4-2.4,0.8-6.2,1.8-8.7c0.6-1.5,1-2.5,1-2.5s1.8-5.8,4.8-8.7
		c0.8-0.9,2-1.3,3.2-1.3c1.4,0.1,2.8,0.5,3.9,1.2l0.1,0.1c0,0,19.4,19.8,21.2,24.4C134.9,76.9,135,78.7,134.8,80.7z"/>
		<path fill="#5E5A6B" d="M134.2,80.4c-0.5,5.1-2.6,11.2-2.6,11.2s-1.5,15.1-3.4,19.6c-1.9,4.5-1.1,10.7-2.1,22.1
		c-0.4,4.1-1.7,6.9-3.5,8.8c-2.9,3.1-7.1,3.8-10.4,3.6l-0.8-0.1c-5.3-0.5-10.5-26.2-10.5-26.2s-2.4-21.9-1.5-24.8s-1-20-1.6-23.8
		c-0.4-2.4,0.8-6.2,1.8-8.7c0.6-1.5,1-2.5,1-2.5s1.8-5.8,4.8-8.7c0.8-0.9,2-1.3,3.2-1.3c1.4,0.1,2.8,0.5,3.9,1.2l0.1,0.1
		c0,0,19.4,19.8,21.2,24.4C134.3,76.5,134.4,78.4,134.2,80.4z"/>
		<path opacity="0.1" enable-background="new    " d="M112.4,158.4c0,0-4.4,3.9-5.9,3.8C105,162,112.4,158.4,112.4,158.4z"/>
		<path opacity="0.1" enable-background="new    " d="M113.6,162.2c0,0-4.6,2.2-6,2.5C106.2,165,111.8,161.6,113.6,162.2z"/>
		<path opacity="0.1" enable-background="new    " d="M131.5,103.3c0,0,6.9,0.1,7.9,2.3C140.5,107.7,133.8,102.4,131.5,103.3z"/>
		<path opacity="0.1" enable-background="new    " d="M130.6,107.1c0,0,5.3,1.1,6.9,2.4C139.1,110.7,130.6,107.1,130.6,107.1z"/>
		<path opacity="0.1" enable-background="new    " d="M121.7,94c0,0-0.6,21.7-3,24.5S121.7,94,121.7,94z"/>
		<path opacity="0.1" enable-background="new    " d="M115.8,155.3c0,0-4.4,19.1,4.4,20.3c8.8,1.2,6.1-21.8,6.1-21.8L115.8,155.3z"/>
		<path fill="#A1616A" d="M115.5,155c0,0-4.4,19.1,4.4,20.3c8.8,1.2,6.1-21.8,6.1-21.8L115.5,155z"/>
		<path opacity="0.1" enable-background="new    " d="M144.4,29.1c-0.2-0.4-0.5-0.8-0.6-1.2c-1.2-2.4-4.2-1.3-6.4-0.1l-1.2,1.5
		c-0.5,0.6-1,1.3-1.4,2.1c-0.2,0.6-0.4,1.2-0.6,1.9c-0.3,1.1-0.8,2.1-1.2,3.2c-1.3,3.5-2.1,7.2-2.4,11c-1,0.2-2,0.3-3,0.3h-0.1v-0.1
		c0.1-0.4,0.2-0.8,0.3-1.3l0,0c0.5-2.4,0.5-4.9,0.2-7.3c0-0.1,0-0.1,0-0.2c-0.1-0.6-0.2-1.1-0.2-1.6c-0.2,0.4-0.4,0.8-0.6,1.1
		c-1.3,2.5-2.7,5-5.3,6.1c-1,0.4-2.1,0.6-3.2,0.7c-1.4,0.1-2.7,0.3-4,0.7c-0.4,0.1-0.8,0.4-1.2,0.7c-0.3,0.5-0.5,1.1-0.6,1.8
		c-0.1,0.8-0.4,1.6-0.6,2.4c-1.1,2.9-2.9,5.6-5.2,7.8l-0.6,0.6c-1,1-2.2,1.8-3.5,2.4c-1.2,0.4-2.4,0.6-3.7,0.6c0.6-1.5,1-2.5,1-2.5
		s1.8-5.8,4.8-8.7c0.8-0.9,2-1.3,3.2-1.3c2.2-2.6,4.1-5.5,5.7-8.6c-5.5-7.5-3.9-18,3.5-23.5c7.5-5.5,18-3.9,23.5,3.5
		C143,23.4,144.1,26.2,144.4,29.1L144.4,29.1z"/>
		<path fill="#464353" d="M145.5,16c-1-1.1-2.4-1.8-3.7-2.4c-0.5-0.2-0.9-0.5-1.2-0.9c-0.2-0.5-0.4-1-0.4-1.5
		c-0.5-3.2-3.5-5.5-6.5-6.8c-3.9-1.7-8.5-2.4-12.2-0.4c-1.8,1-3.2,2.5-4.9,3.8c-2.1,1.6-4.4,2.7-6.6,4.1c-2.2,1.4-4.3,3.1-5.3,5.5
		c-1.6,3.7-0.4,7.9-0.2,11.9c0.3,6.3-2.3,12.9-7.4,16.6c-0.6,0.4-1.2,0.9-1.6,1.4c-0.5,0.6-0.5,1.4-0.1,2c0.3,0.3,0.7,0.6,1,0.9
		c0.6,0.7,0.5,1.7,0.2,2.5c-0.7,2.8-2.2,5.3-4.3,7.3c0.1,0.7,0.9,0.9,1.5,1c1.7,0.3,3.5,0.4,5.2,0.4c2.8,0.2,5.5-0.9,7.3-2.9
		c3.1-2.9,5.7-6.6,6.4-10.8c0-0.6,0.2-1.2,0.6-1.8c0.3-0.3,0.7-0.6,1.2-0.7c2.3-0.8,5-0.4,7.2-1.4c2.9-1.3,4.3-4.3,5.9-7.2
		c0.1,0.6,0.2,1.1,0.2,1.6c0.4,2.9,0.3,5.9-0.4,8.8c-0.4,1.6-1,3.2-1,4.9c0,1.2,1.3,7.7,3,5.8c1.7-1.9,1-6.2,1.1-8.7
		c0-4.5,0.8-9,2.4-13.2c0.4-1.1,0.8-2.1,1.2-3.2c0.1-0.6,0.3-1.3,0.6-1.9c0.4-0.7,0.8-1.4,1.4-2.1l1.2-1.5c2.2-1.2,5.2-2.4,6.4,0.1
		c0.5,0.9,0.7,2,1.9,1.1c0.7-0.6,0.9-1.6,1.1-2.4C147.2,22.6,147.8,18.6,145.5,16z"/>
		<path opacity="0.1" enable-background="new    " d="M123,74.7c-0.5-11.5-16.5-13.9-20.3-3c0,0.1-0.1,0.1-0.1,0.2
		c-2.5,7.4-1.4,26-1.4,26s0.3,12.5,1.5,16.7c1.2,4.2,4.5,16.1,4.5,18c0,1.9,3.1,9.3,4.4,9.8c1.3,0.5,1.9,4.7,2.3,5.4
		s1.3,10.5,1.3,10.5s12.1-0.7,12.3-2.7c0.2-1.9-2.7-11.3-2.7-11.3s-2.1-3.8-2.4-6.9c-0.3-3.1-2-4.5-1.7-6.6c0.3-2.1-1-3.2-1-4.6
		c0-1.4-1-5.1-1-5.1s-2-1.6-1.7-3.5c0.3-1.9-2.9-5.8-2-7.1c0.8-1.4,1.1-4.8,1.1-4.8s1.1-15.4,1.8-19.5c0.7-4.2,5.1-10.9,5.1-10.9
		S123,75.1,123,74.7z"/>
		<path opacity="0.1" enable-background="new    " d="M122.5,142.1c-2.9,3.1-7.1,3.8-10.4,3.6c-0.4-1.5-0.9-3.2-1.8-3.6
		c-1.3-0.5-4.4-7.9-4.4-9.8c0-1.9-3.3-13.9-4.5-18c-1.2-4.1-1.5-16.7-1.5-16.7s-1.1-18.6,1.4-26c0-0.1,0.1-0.2,0.1-0.2
		c3.8-10.9,19.8-8.5,20.3,3c0,0.3,0,0.5,0,0.5s-4.4,6.7-5.1,10.9c-0.7,4.2-1.8,19.5-1.8,19.5s-0.2,3.4-1.1,4.8
		c-0.8,1.4,2.3,5.2,2,7.1s1.7,3.5,1.7,3.5s1,3.7,1,5.1c0,1.4,1.3,2.5,1,4.6s1.4,3.5,1.7,6.6C121.2,138.9,121.8,140.5,122.5,142.1z"
		/>
		<path fill="#5E5A6B" d="M122.4,74.4c-0.5-11.5-16.5-13.9-20.3-3c0,0.1-0.1,0.1-0.1,0.2c-2.5,7.4-1.4,26-1.4,26s0.3,12.5,1.5,16.7
		s4.5,16.1,4.5,18s3.1,9.3,4.4,9.8s1.9,4.7,2.3,5.4s1.3,10.5,1.3,10.5s12-0.7,12.3-2.7c0.2-1.9-2.7-11.3-2.7-11.3s-2.1-3.8-2.4-6.9
		c-0.3-3.1-2-4.5-1.7-6.6c0.3-2.1-1-3.2-1-4.6c0-1.4-1-5.1-1-5.1s-2-1.6-1.7-3.5c0.3-1.9-2.9-5.8-2-7.1c0.9-1.4,1.1-4.8,1.1-4.8
		s1.1-15.4,1.8-19.5c0.7-4.2,5.1-10.9,5.1-10.9S122.4,74.8,122.4,74.4z"/>
		<path opacity="0.1" enable-background="new    " d="M102.6,103.9c0.3-0.3,6.4-7,8.3-4.6C112.8,101.7,102.6,103.9,102.6,103.9z"/>
		<path opacity="0.1" enable-background="new    " d="M103.1,109.2c0.2-0.2,6.1-0.5,7.5-3.8S103.1,109.2,103.1,109.2z"/>
		<g opacity="0.1">
		<path d="M96.5,50.2c0.1,0.2,0.3,0.4,0.3,0.6c0.2-0.7,0.1-1.5-0.3-2.2c-0.3-0.3-0.7-0.5-1-0.9l-0.1-0.1c-0.3,0.5-0.3,1.2,0.1,1.7
			C95.8,49.7,96.2,49.9,96.5,50.2z"/>
			<path d="M104.6,29.4c0-0.6,0-1.2,0-1.8c-0.1-2.2-0.5-4.4-0.6-6.6c-0.1,2.7,0.5,5.5,0.6,8.2C104.6,29.3,104.6,29.4,104.6,29.4z"/>
			<path d="M129.6,56.2c-1.5,1.7-2.6-3.3-2.9-5.2c0,0.3-0.1,0.7-0.1,1c0,1.2,1.3,7.7,2.9,5.8c1.1-1.3,1.2-3.6,1.2-5.6
			C130.7,53.7,130.4,55.2,129.6,56.2z"/>
			<path d="M128,38.3c0.1,0.8,0.2,1.7,0.2,2.5c0.1-1.4,0-2.8-0.2-4.1c-0.1-0.6-0.2-1.1-0.2-1.6c-1.5,2.9-3,5.9-5.9,7.2
			c-2.3,1-4.9,0.6-7.2,1.4c-0.4,0.1-0.8,0.4-1.2,0.7c-0.3,0.5-0.5,1.1-0.6,1.8c-0.7,4.2-3.3,7.9-6.4,10.8c-1.8,2.1-4.5,3.2-7.3,2.9
			c-1.7,0-3.5-0.1-5.2-0.4c-0.3,0-0.5-0.1-0.8-0.2c-0.2,0.3-0.5,0.6-0.8,0.8c0.1,0.7,0.9,0.9,1.5,1c1.7,0.3,3.5,0.4,5.2,0.4
			c2.8,0.2,5.5-0.9,7.3-2.9c3.1-2.9,5.7-6.6,6.4-10.8c0-0.6,0.2-1.2,0.6-1.8c0.3-0.3,0.7-0.6,1.2-0.7c2.3-0.8,5-0.4,7.2-1.4
			c2.9-1.3,4.3-4.3,5.9-7.2C127.8,37.2,127.9,37.7,128,38.3z"/>
			<path d="M146.7,24.4c-0.2,0.8-0.4,1.9-1.1,2.4c-1.2,0.9-1.4-0.1-1.9-1.1c-1.2-2.4-4.2-1.3-6.4-0.1l-1.2,1.5
			c-0.5,0.6-1,1.3-1.4,2.1c-0.2,0.6-0.4,1.2-0.6,1.9c-0.3,1.1-0.8,2.1-1.2,3.2c-1.6,4.2-2.4,8.7-2.4,13.2c0,0.2,0,0.4,0,0.7
			c0.1-4.2,0.9-8.3,2.4-12.3c0.4-1.1,0.9-2.1,1.2-3.2c0.2-0.6,0.3-1.3,0.6-1.9c0.4-0.8,0.8-1.5,1.4-2.1l1.2-1.5
			c2.2-1.2,5.2-2.4,6.4,0.1c0.5,0.9,0.7,2,1.9,1.1c0.7-0.6,0.9-1.6,1.1-2.4c0.5-1.9,0.7-3.8,0.6-5.7C147.2,21.6,147,23,146.7,24.4z"
			/>
	</g>
		<path fill="#464353" d="M161.2,84.9l0.3,0.2c-0.6-0.4-0.8-1.2-0.3-1.8c0,0,0,0,0,0L176,61.8c0.4-0.6,1.2-0.7,1.8-0.3l-0.3-0.2
		c1,0.7,1.2,2,0.6,2.9c0,0,0,0,0,0l-13.9,20.2C163.5,85.3,162.2,85.6,161.2,84.9C161.2,84.9,161.2,84.9,161.2,84.9z"/>
		<path fill="#9F9EFF" d="M177.6,61.3l0.3,0.2l0,0l-16.3,23.7l0,0l-0.3-0.2c-0.4-0.3-0.6-0.9-0.3-1.4l15.2-22.1
		C176.5,61.1,177.1,60.9,177.6,61.3z"/>
		<path fill="#464353" d="M175.8,64.5L175.8,64.5c0.1,0.1,0.1,0.1,0.1,0.2l-1.2,1.8c0,0-0.1,0.1-0.1,0l-0.1,0c0,0-0.1-0.1,0-0.1
		l1.2-1.8C175.7,64.5,175.8,64.5,175.8,64.5z"/>
</g>
	<linearGradient id="SVGID_2_" gradientUnits="userSpaceOnUse" x1="993.405" y1="-295.6944" x2="993.405" y2="260.6656" gradientTransform="matrix(0.5629 0 0 -0.5629 -303.7337 312.9011)">
	<stop  offset="0" style="stop-color:#808080;stop-opacity:0.25"/>
		<stop  offset="0.54" style="stop-color:#808080;stop-opacity:0.12"/>
		<stop  offset="1" style="stop-color:#808080;stop-opacity:0.1"/>
</linearGradient>
	<path fill="url(#SVGID_2_)" d="M458.3,427.5l-4.5-14.3c0,0-3.8-10.2-3.2-15.6s-1.3-11.4-1.3-11.4l3.7-19.3c0,0,0.2-2.1,0.2-4.9
	c0-4.6-0.7-11.1-3.9-12.8c-5.1-2.7-15.6-25.5-17.8-25.5c-2.2,0-9.3-1.5-9.3-3.9c0-0.1,0-0.2,0-0.3c0,0,0-0.1,0-0.1s0-0.1-0.1-0.2
	l0-0.1l-0.1-0.2l0-0.1c-0.3-0.5-0.6-0.9-1-1.3c9.5-1.8,19-3.8,28.4-6.1h-0.3l0.3-0.1c-1.3,0-2.5-0.1-3.7-0.3l-0.3,0.1
	c-13.9-1.9-26.3-12.7-29.7-26.5c-3.8-15.2,2.8-31.1,2.5-46.7c-0.2-9.9-3.1-19.6-8.5-27.9c-0.7-1.1-1.5-2.2-2.3-3.3
	c10.6-5.2,15.1-18,9.9-28.6c-0.5-1-1-1.9-1.7-2.8c-0.2-0.3-0.5-0.7-0.8-1c5.2,8.6,3.7,19.6-3.5,26.5c5.7-10.3,1.9-23.2-8.4-28.9
	c-10.3-5.7-23.2-1.9-28.9,8.4c-0.1,0.1-0.1,0.2-0.2,0.4c-0.5-0.2-0.9-0.4-1.4-0.6c2.9-7.9,10.2-13.4,18.7-13.9c-0.4,0-0.8,0-1.3,0
	c-8.6,0-16.3,5.2-19.6,13.1c-6.4-2.3-13-3.3-19.6-1.6c-1.2,0.3-2.4,0.7-3.5,1.2l0.3-0.2c-1.6,0.7-3.1,1.6-4.4,2.8
	c-2,1.8-3.3,4.1-5,6.2c-1.7,2.1-3.7,3.9-5.9,5.4c0.2-0.1,0.4-0.2,0.6-0.3c-7.5,5.3-17.8,6.9-26.4,3.4c-2.4-1-4.8-2.3-7.3-2.6
	c-2-0.2-4,0-5.8,0.8c0.1-0.1,0.2-0.1,0.2-0.2c-2.4,1-4.5,2.5-6.1,4.6c-2.8,3.5-4.2,7.9-5.2,12.2c-0.7,3.1-1.1,6.2-1.1,9.4
	c0,4.1,1,8,3.4,11.2c3.8,4.9,8.9,6.2,14.3,7.1c-0.2,0.6-0.3,1.1-0.4,1.6c-6.4,25.3,8.4,51.1,33.4,58.3l1,1.8l0.3,0.1
	c2.5,4.2,5.2,8.9,7.8,13.5c0.1,0.2,0.3,0.5,0.4,0.7l-4.8,2.5l0,0c-1.3,0.6-4.4,2.3-6.1,4c-0.5,0.4-0.9,1-1.1,1.6
	c-0.7,2.5-4.6,8.8-7.3,10.5c-2.7,1.7-4.9,10-4.6,14.4c0.2,4.4-1.5,3.9-5.8,4.2c-4.4,0.2,0,6.6,0,6.6l0.1,0.4
	c-0.2,0.3-0.4,0.7-0.7,1.1c-1.1,1.7-2.6,3.6-3.7,3.5c-2-0.2-3.2,4.6-3,5.3c0.1,0.7-3.4,6.6-4.8,7.2s-7.1,1.8-5.5,7.3l-6.9,7.1
	l-5.6,5.4c0,0-8-4.5-21.1,9.6c1.5-0.1,2.9,0,4.3,0.4l-0.4,0.2c-3.4,1.6-9.4,4.4-13.8,6.2l-23.4,0.7v-17.4c0,0-2.1-4.9-4.5,0
	l-0.6,17.6l-50.9,1.6l9.5-10.1l0,0l0.1-0.1c2.1-2.2,2.8-5.4,1.9-8.3l-39.8-125.1l0,0l-0.3-0.9c-0.8-2.5-3-4.4-5.6-4.7l-55.3-7.5
	l-0.4-0.1l-5.1,1.4c-2.7,0.7-4.2,3.5-3.5,6.1c0,0,0,0.1,0,0.1c1.3,4.5,3.5,11.9,6.2,21.1h-7.6l5.8,50.5l3.6,19.4
	c0.9,5,2,9.9,3.2,14.8c2.9,11.8,8.7,37,8.9,51.7l-42.8,46.6v9.5h273.2c0,0,0,0.1,0,0.1h133.1c0,0-1.5-2.6,1.7-6.2
	c3.1-3.7,1.6-18.3,1.6-18.3s-1.8-2.3,0.4-7.5C462.3,442.2,458.3,427.5,458.3,427.5z M118.8,416.5l-7.3,0.2l-6.8-43.9
	C109.8,388.9,114.6,404.1,118.8,416.5z M305.8,443.2l-4.7-9.6c1.1,0,2.1-0.2,3.1-0.8c3-2.2,4.9-7.4,4.9-7.4l8.2-9.7l0.7-0.8
	c1.7,4.6,3.6,8.3,5.2,10c3.9,4.4,4.4,17.2,5.6,21.8c1.2,4.7,0.3,2.7,0,5.4c0,0.7,0,1.3,0.2,2C323.3,448.3,315.7,443.1,305.8,443.2z"
	/>
	<polygon fill="#514E7F" points="52.8,470 100.9,417.9 291.7,411.7 325,479.3 52.8,479.3 "/>
	<polygon opacity="0.2" enable-background="new    " points="52.8,470 100.9,417.9 291.7,411.7 325,479.3 52.8,479.3 "/>
	<path fill="#514E7F" d="M301.4,465.6v1.8c0,1.9-1.6,3.5-3.5,3.5H195.3c-1.9,0,0-3.9,0-3.9l-1.2-25.4c-0.1-2,1.2-3.8,3.2-4.3
	c5.7-1.4,9.6,0.9,9.6,0.9l63.5-1.6c1.3-0.1,2.6,0,3.9,0.2c4.7,0.6,8.9,3.1,11.6,6.9l14.6,19.8C301.1,464.1,301.4,464.9,301.4,465.6z
	"/>
	<path opacity="0.1" enable-background="new    " d="M301.4,467.4L301.4,467.4c0,1.9-1.6,3.5-3.5,3.5H195.3c-1.9,0,0-3.9,0-3.9
	s5.7-2.7,14.1-2.3l74.9-1.6c0,0,8.8,0.2,14,0.8C300,464.1,301.4,465.6,301.4,467.4z"/>
	<polygon fill="#EE8127" points="272.3,441 207.9,441 209.7,460.6 284.2,459.3 "/>
	<path fill="#514E7F" d="M163.1,454.8v6.8l-67.4,2.7c0,0-15.4-1.1-17.3-10.5c-0.2-1-0.1-2,0.1-3c0.7-4,4.1-11,19.2-14.2l18.6-1.9
	h41.4C157.6,434.7,163,440,163.1,454.8z"/>
	<path opacity="0.1" enable-background="new    " d="M163.1,455v6.6l-67.4,2.7c0,0-15.4-1.1-17.3-10.5c-0.2-1-0.1-2,0.1-3
	c0,0,9.3,8.8,22,7.5l59.3-2.6C160.9,455.5,162,455.3,163.1,455z"/>
	<ellipse transform="matrix(0.9987 -5.146449e-02 5.146449e-02 0.9987 -22.7325 6.3197)" opacity="0.1" enable-background="new    " cx="111.4" cy="444.6" rx="20.7" ry="3.6"/>
	<path fill="#514E7F" d="M117.9,442.9l-10.9,5.4l-11.6-2.7l-0.1-18.9c0.7-13.8-5.6-41.4-8.8-54c-1.2-4.8-2.3-9.7-3.2-14.6l-3.6-19.2
	L74,288.9h13.8l8.1,11.6L117.9,442.9z"/>
	<path fill="#514E7F" d="M117.9,442.9l-10.9,5.4l-7-40.4c0.1-6.9-8.5-39.6-9.1-40.9c-6.9-16.4-12.8-78.1-12.8-78.1h9.6l8.1,11.6
	L117.9,442.9z"/>
	<path opacity="0.15" enable-background="new    " d="M117.9,442.9l-10.9,5.4l-7-40.4c0.1-6.9-8.5-39.6-9.1-40.9
	c-6.9-16.4-12.8-78.1-12.8-78.1h9.6l8.1,11.6L117.9,442.9z"/>
	<path fill="#514E7F" d="M183,405.4l-37.1,39.1l-4.4,0.3l-5.3,0.4c-2.5,0.2-4.9-1.2-5.9-3.5C119,416.4,83,293.9,75.4,268
	c-0.8-2.6,0.7-5.3,3.3-6.1c0,0,0.1,0,0.1,0l5.1-1.4l0.4,0l54.1,7.3c3.2,0.4,5.8,2.6,6.8,5.7l39.6,123.8
	C185.7,400.1,185,403.2,183,405.4z"/>
	<path opacity="0.1" enable-background="new    " d="M183,405.4l-37.1,39.1l-4.4,0.3l-5.3,0.4c-2.5,0.2-4.9-1.2-5.9-3.5
	C119,416.4,83,293.9,75.4,268c-0.8-2.6,0.7-5.3,3.3-6.1c0,0,0.1,0,0.1,0l5.1-1.4l0.4,0l54.1,7.3c3.2,0.4,5.8,2.6,6.8,5.7l39.6,123.8
	C185.7,400.1,185,403.2,183,405.4z"/>
	<path fill="#514E7F" d="M182.8,405.6l-37,39l-4.4,0.3L85.9,267c-0.9-2-1.5-4.3-1.6-6.5l55,7.4c2.6,0.3,4.8,2.2,5.6,4.7l39.8,124.5
	C185.7,400,185,403.3,182.8,405.6z"/>
	<path fill="#EE8127" d="M180.1,399c-0.4,0.7-0.9,1.3-1.5,1.9l-36.4,33.9L92.5,269.9l47.7,4.7c3.4,0.3,6.2,2.7,7.2,5.9l33.5,111.7
	C181.6,394.5,181.3,397,180.1,399z"/>
	<path opacity="0.1" enable-background="new    " d="M180.1,399l-39.9-124.3c3.4,0.3,6.2,2.7,7.2,5.9l33.5,111.7
	C181.6,394.5,181.3,397,180.1,399z"/>
	<circle fill="#945B79" cx="394.2" cy="193.7" r="21.1"/>
	<path fill="#945B79" d="M372.8,190.6c0-11.2,8.7-20.4,19.9-21.1c-0.4,0-0.8,0-1.3,0c-11.7-0.2-21.3,9.1-21.5,20.8
	c-0.2,11.7,9.1,21.3,20.8,21.5c0.2,0,0.5,0,0.7,0c0.4,0,0.8,0,1.3,0C381.5,211,372.8,201.7,372.8,190.6z"/>
	<path opacity="0.1" enable-background="new    " d="M375.5,193.7c0-11.2,8.7-20.4,19.9-21.1c-0.4,0-0.8,0-1.3,0
	c-11.7,0.2-21,9.8-20.8,21.5c0.2,11.4,9.4,20.6,20.8,20.8c0.4,0,0.8,0,1.3,0C384.3,214.1,375.5,204.9,375.5,193.7z"/>
	<path fill="#FFC1C7" d="M285.4,430.7c-2,1-4,2-6.1,2.8c-5.4,2.1-13.7,4.6-21.4,3.7c-13-1.6-20.7,2.7-20.7,2.7l-2.9-21.6
	c0,0,9.6-2.8,13.5-3.5c2.9-0.6,13.4-5.4,18.5-7.8c1.7-0.8,2.7-1.3,2.7-1.3h9.7L285.4,430.7z"/>
	<path opacity="0.1" enable-background="new    " d="M285.4,430.7c-2,1-4,2-6.1,2.8c-0.7-19.2-8-24.9-13.1-26.6
	c1.7-0.8,2.7-1.3,2.7-1.3h9.7L285.4,430.7z"/>
	<path fill="#FF6584" d="M321.3,366.2v47.3l-2.5,3l-8.1,9.6c0,0-1.8,5.1-4.9,7.3c-3,2.2-10-0.7-10-0.7l-1.9,3.2c0,0-4.4,0.8-6.4,0
	c-2.1-0.8-7.2,2.4-7.2,2.4c0.7-34.7-18.1-31.9-18.1-31.9c13-13.9,21-9.5,21-9.5l5.6-5.3l6.9-7c-1.6-5.4,4.1-6.6,5.5-7.2
	c1.3-0.6,4.9-6.4,4.7-7.2c-0.1-0.7,1.1-5.5,3-5.3c1.1,0.1,2.6-1.8,3.7-3.5c0.9-1.4,1.5-2.6,1.5-2.6L321.3,366.2z"/>
	<path fill="#FF6584" d="M338.1,318.9l14.3-7.3l-0.8,8.6l2.8,8.6c0,0-2.6,6.7-2.9,7.4c-0.3,0.7-6.5,15.9-6.5,15.9l-4.9-6.2
	L338.1,318.9z"/>
	<polyline opacity="0.1" enable-background="new    " points="340.1,345.9 338.1,318.9 352.4,311.6 "/>
	<path fill="#FFC1C7" d="M399.5,310.9c0,0-4.8,6.8-11.3,15.5c-15.1,20.3-39.8,50.7-36,28.6c0.1-0.7,0.2-1.4,0.3-2.2
	c-0.9,0.6-3,0.1-5.3-1l-0.2-0.1c-1.1-0.6-2.2-1.2-3.3-1.9c-0.1-0.1-0.2-0.2-0.3-0.2c-2.6-1.8-4.6-3.9-4.5-5.3
	c1.8-31.7,9.2-16.6,11.3-13c0.1,0.2,0.3,0.5,0.5,0.7c-0.1-0.2-0.2-0.5-0.3-0.8c-1.5-3.6-4.2-8.9-7.4-14.6v-0.1l-0.4-0.8
	c-2.6-4.7-5.5-9.6-8.1-13.9l-0.7-1.2c-4.1-6.8-7.2-11.9-7.2-11.9s18.4-16.8,33.9-27.1c12.9-8.5,23.9-12.5,20.4,1.8
	c-2.3,9.2-1.6,17.1,0.5,23.6c0.1,0.2,0.2,0.5,0.2,0.7c0.4,1.2,0.9,2.5,1.4,3.7c0.7,1.6,1.6,3.2,2.5,4.8
	C389.1,302.2,393.8,307.1,399.5,310.9z"/>
	<path opacity="0.15" enable-background="new    " d="M370.9,285.3c-8.7,9.5-10.6,18.6-24.5,18.6c-4,0-8.1-0.5-12-1.5
	c-4.4-7.4-7.9-13-7.9-13s62-56.7,54.3-25.2C378.5,273.6,368.6,278.6,370.9,285.3z"/>
	<path fill="#FFC1C7" d="M394.2,254.6c0,26.4-21.4,47.8-47.8,47.8c-26.4,0-47.8-21.4-47.8-47.8s21.4-47.8,47.8-47.8c0,0,0,0,0,0
	c26.3-0.1,47.7,21.1,47.8,47.4C394.2,254.3,394.2,254.4,394.2,254.6z"/>
	<path opacity="0.1" enable-background="new    " d="M345.3,337.3c0,0,0.8,13.6,9.5,12.5c8.6-1.1,2.1,28.9,2.1,28.9l-9.6,8.7
	l-10.3,3.2c0,0-9.1-2.7-9-3.2c0.1-0.5,3.6-28.9,3.6-28.9l5.3-15.2L345.3,337.3z"/>
	<path fill="#514E7F" d="M345.3,338.3c0,0,0.8,13.6,9.5,12.5s2.1,28.9,2.1,28.9l-9.6,8.7l-10.3,3.2c0,0-9.1-2.7-9-3.2
	c0.1-0.5,3.6-28.9,3.6-28.9l5.3-15.2L345.3,338.3z"/>
	<path opacity="0.1" enable-background="new    " d="M321.3,366.2v47.3l-2.5,3c-2.6-6.9-4.6-16.4-3.4-24.8
	c1.6-11.2-1.6-25.6-2.8-30.2c0.9-1.4,1.5-2.6,1.5-2.6L321.3,366.2z"/>
	<path opacity="0.1" enable-background="new    " d="M346.4,339.7c-0.3,2.7-1,5.3-2.1,7.7c-0.3,0.7-0.6,1.5-1,2.2
	c-2.6-1.8-4.6-3.9-4.5-5.3c1.8-31.7,9.2-16.6,11.3-13C349.1,332,346.8,334.3,346.4,339.7z"/>
	<path opacity="0.1" enable-background="new    " d="M350.3,331.1c-1.5-3.7-4.5-9.4-7.8-15.4l0.4-0.2l7.7,15.4
	C350.5,331,350.4,331.1,350.3,331.1z"/>
	<path opacity="0.1" enable-background="new    " d="M399.5,310.9c0,0-52.6,75.7-47.3,44.1c0.1-0.7,0.2-1.4,0.3-2.2
	c-0.9,0.6-3.1,0.1-5.5-1.1c0.4-2.1,0.6-3.5,0.6-3.5l5.8-16.5c0,0,3.4-13.1,2.9-15.8l0.2-0.1l29-19.4h0l0,0
	C389,302.2,393.8,307.1,399.5,310.9z"/>
	<path fill="#FF6584" d="M454.1,368.1l-4.1,21.3l-12.4,90H330.1c0,0,1.9-15.8,1.9-18.2c0-2.4-2.2-6.1-1.9-8.7c0.2-2.7,1.2-0.7,0-5.3
	c-1.2-4.6-1.7-17.2-5.6-21.6s-10.2-20.4-8.3-33.9c1.9-13.6-3.2-31.8-3.2-31.8s-4.4-6.3,0-6.6s6.1,0.2,5.8-4.1s1.9-12.6,4.6-14.3
	c2.7-1.7,6.6-8,7.3-10.4c0.2-0.6,0.6-1.2,1.1-1.6c2.2-2.1,6.6-4.2,6.6-4.2l4.2-2.1v0.1l7.7,15.4c0,0-3.6,1.8-4.2,8.8
	c-0.3,2.7-1,5.3-2.1,7.7c-0.2,0.5-0.4,1-0.6,1.4c-0.6,1.4-1.2,2.6-1.8,3.6l0,0c-0.8,1.4-1.4,2.3-1.4,2.3s-0.2,1.6-0.5,3.9l0,0
	c-0.6,4.7-1.7,12.2-2.4,14c-0.6,1.6-1.7,4.3-2.3,6.8c-0.4,1.5-0.6,2.9-0.4,3.9c0,0.1,0,0.1,0.1,0.2c0.7,2.3,4.4-7.4,4.4-7.4
	s2.7-8.2,3.9-8.2c0.9,0,3-11.6,3.9-17c0.3-1.6,0.4-2.6,0.4-2.6l5.8-16.5c0,0,0.8-3.1,1.6-6.6c0.8-3.7,1.6-7.8,1.3-9.2l0.2-0.1
	l29-19.4h0l0.4-0.3h0c-0.2,0-0.8-0.4-1.9-3c-0.3-0.7-0.6-1.5-1-2.5c0,0,9.3-3.7,12.6-1c0.2,0.2,0.4,0.4,0.6,0.6
	c0.1,0.1,0.2,0.3,0.2,0.4c2.2,4.5,3.2,7.9,5.3,10.8c0.2,0.3,0.5,0.6,0.8,0.9c2.6,2.8,7.9,6,7,6.9c-1,1,7.3,5.1,7.3,5.1
	s4.8,2.8,6.3,5.1c0.3,0.4,0.4,0.8,0.5,1.2c0,2.4,7,3.9,9.2,3.9s12.6,22.6,17.7,25.2S454.1,368.1,454.1,368.1z"/>
	<g opacity="0.1">
	<path d="M345.2,331.9c0,0-3.6,1.8-4.2,8.8c-0.3,2.7-1,5.3-2.1,7.7c-0.7,1.7-1.5,3.4-2.4,5l0,0c-0.8,1.4-1.4,2.3-1.4,2.3
		s-0.2,1.6-0.5,3.9l0,0c-0.6,4.8-1.8,12.2-2.4,14c-0.6,1.6-1.7,4.3-2.3,6.8c-0.4,1.5-0.6,2.9-0.4,3.9c0,0.1,0,0.1,0.1,0.2
		c0.7,2.3,4.4-7.4,4.4-7.4s2.7-8.2,3.9-8.2c0.3,0,0.8-1.6,1.4-3.9c0.3-1.8,0.6-3.7,0.7-5.2l0,0c0.3-2.3,0.5-3.9,0.5-3.9
		s0.3-0.5,0.8-1.4c0.5-3,0.9-5.2,0.9-5.2l5.8-16.5c0,0,0.4-1.6,1-3.9l-6.2-12.3l-4.2,2.1l0,0L345.2,331.9z"/>
		<path d="M450.4,350.6c-5.1-2.7-15.5-25.2-17.7-25.2s-9.2-1.5-9.2-3.9s-6.8-6.3-6.8-6.3s-8.2-4.1-7.3-5.1c0.9-0.9-4.4-4.1-7-6.9
		c-0.3-0.3-0.5-0.6-0.8-0.9c-2.2-2.9-3.2-6.3-5.3-10.8c-0.1-0.1-0.1-0.3-0.2-0.4c-0.2-0.2-0.4-0.4-0.6-0.6c-1.5-1.2-4.2-1.1-6.7-0.7
		c0.5,0.1,0.9,0.4,1.3,0.7c0.2,0.2,0.4,0.4,0.6,0.6c0.1,0.1,0.2,0.3,0.2,0.4c2.2,4.5,3.2,7.9,5.3,10.8c0.2,0.3,0.5,0.6,0.8,0.9
		c2.6,2.8,7.9,6,7,6.9c-1,1,7.3,5.1,7.3,5.1s6.8,3.9,6.8,6.3c0,2.4,7,3.9,9.2,3.9c2.2,0,12.6,22.6,17.7,25.2
		c5.1,2.7,3.6,17.4,3.6,17.4l-4.1,21.4l-12.4,90h5.3l12.4-90l4.1-21.3C454.1,368.1,455.5,353.3,450.4,350.6z"/>
</g>
	<path fill="#FFC1C7" d="M238.6,418.6c0,0-30.9-8.9-33,4.8s12.6,21.6,22.1,21.3c9.5-0.2,13.6-9.2,13.6-9.2L238.6,418.6z"/>
	<path fill="#FFC1C7" d="M393.3,460.8c0,0-6.9,5-21.6,5c-14.7,0-31.8,3.2-31.8,3.2s-21.8-51.4-65.6-7.4c0,0-7.9,10.2,33,11.3
	c0,0,14.4-0.5,17.6,6.7h81.6l11.2-8.4L393.3,460.8z"/>
	<path fill="#514E7F" d="M229.1,396.5c0,0-2.1-4.8-4.5,0l-1.3,37.6l2.9,8.9l2.9-7.9L229.1,396.5z"/>
	<path opacity="0.1" enable-background="new    " d="M396.1,291.2c-4.2,1.4-8.9,4.8-10.2,5.9c-0.3,0-1.1-0.6-2.9-5.5
	C383,291.6,393.5,287.4,396.1,291.2z"/>
	<path fill="#FF6584" d="M350.6,331.9c0,0-3.6,1.8-4.2,8.8c-0.3,2.7-1,5.3-2.1,7.7l-2.4,5l0,0l-1.9,6.3l0,0l0.2,12.8l-4.9,8l-0.4,3.9
	l-1.3,11.9l-6.6-3.2c0,0,2.7-19.3,4.7-23.2c2-3.9,4.7-24.6,4.7-24.6s-0.1-7.6,0.8-8.9c1-1.3-1.7-1.1-1.9-3.9c-0.1-1.7-2-6.2-3.5-9.7
	c2.2-2.1,6.6-4.2,6.6-4.2l4.2-2.1L350.6,331.9z"/>
	<path opacity="0.1" enable-background="new    " d="M350.6,331.9c0,0-3.6,1.8-4.2,8.8c-0.3,2.7-1,5.3-2.1,7.7l-2.4,5l0,0l-1.9,6.3
	l0,0l0.2,12.8l-4.9,8l-0.4,3.9l-1.3,11.9l-6.6-3.2c0,0,2.7-19.3,4.7-23.2c2-3.9,4.7-24.6,4.7-24.6s-0.1-7.6,0.8-8.9
	c1-1.3-1.7-1.1-1.9-3.9c-0.1-1.7-2-6.2-3.5-9.7c2.2-2.1,6.6-4.2,6.6-4.2l4.2-2.1L350.6,331.9z"/>
	<path opacity="0.1" enable-background="new    " d="M402.4,304.2c-5.4,4.4-20,17-21.6,25.5c-2.1,10.5-8.2,9.5-8.2,9.5
	c-7.7-16.8-13-20.9-16.1-21.5l29-19.5c0,0,0,0,0,0l0.4-0.3h-0.1c-0.2,0-0.8-0.4-1.9-3l11.6-3.5c0.2,0.2,0.4,0.4,0.6,0.6
	c0.1,0.1,0.2,0.3,0.2,0.4c2.2,4.5,3.2,7.9,5.3,10.8C401.9,303.7,402.2,303.9,402.4,304.2z"/>
	<path fill="#FF6584" d="M402.4,303.3c-5.4,4.4-20,17-21.6,25.5c-2.1,10.5-8.2,9.5-8.2,9.5c-7.7-16.8-13-20.9-16.1-21.4l29-19.4h0
	l0.4-0.3h-0.1c-0.2,0-0.8-0.4-1.9-3l11.6-3.5c0.2,0.2,0.4,0.4,0.6,0.6c0.1,0.1,0.2,0.3,0.2,0.4c2.2,4.5,3.2,7.9,5.3,10.8
	C401.9,302.7,402.2,303,402.4,303.3z"/>
	<path opacity="0.1" enable-background="new    " d="M369.7,388.2c0.4-0.1,19.3-10.8,17.1-2.7S369.7,388.2,369.7,388.2z"/>
	<path opacity="0.1" enable-background="new    " d="M287.9,398.5c0,0,9.9,15.5,13.5,15C304.9,413,287.9,398.5,287.9,398.5z"/>
	<path opacity="0.1" enable-background="new    " d="M300.3,392.7c0,0,0.6,12,5.8,12.9S300.3,392.7,300.3,392.7z"/>
	<path opacity="0.1" enable-background="new    " d="M355.5,431.3c0,0,12.3,20.5,9.9,27.7L355.5,431.3z"/>
	<path opacity="0.1" enable-background="new    " d="M369.8,433.7c0,0,16.7,22,13.8,23.8C380.7,459.3,369.8,433.7,369.8,433.7z"/>
	<path opacity="0.1" enable-background="new    " d="M332.2,398.5c0,0-1.7,15.6,4.7,20.1L332.2,398.5z"/>
	<path opacity="0.1" enable-background="new    " d="M407.1,329c0,0-28.6,22.2-24,45.2c4.6,23,9,24.7,9,24.7s1.7,9.2,4.9,13.1
	c3.2,3.9,2.7,6.4,2.7,6.4s2.9-1.3,3.9,5.3c1,6.7,6.1,11.4,6.1,11.4s1.7,5.3-2.7,8.2c-4.4,2.9-3.4,6.1-3.4,6.1l-17.7,10.3l19.7,19.5
	h50.9c0,0-1.5-2.5,1.7-6.2c3.1-3.6,1.6-18.1,1.6-18.1s-1.8-2.3,0.4-7.4c2.2-5.1-1.9-19.6-1.9-19.6l-4.5-14.2c0,0-3.8-10.1-3.2-15.5
	c0.6-5.4-1.2-11.3-1.2-11.3l-9.8-30.8C439.6,356.3,440.1,325.5,407.1,329z"/>
	<path fill="#FF6584" d="M408.1,329c0,0-28.6,22.2-24,45.2c4.6,23,9,24.7,9,24.7s1.7,9.2,4.9,13.1s2.7,6.4,2.7,6.4s2.9-1.3,3.9,5.3
	c1,6.7,6.1,11.4,6.1,11.4s1.7,5.3-2.7,8.2c-4.4,2.9-3.4,6.1-3.4,6.1l-17.7,10.3l19.8,19.5h50.9c0,0-1.5-2.5,1.7-6.2
	c3.1-3.6,1.6-18.1,1.6-18.1s-1.8-2.3,0.4-7.4c2.2-5.1-1.9-19.6-1.9-19.6l-4.5-14.2c0,0-3.8-10.1-3.2-15.5c0.6-5.4-1.2-11.3-1.2-11.3
	l-9.8-30.8C440.6,356.3,441.1,325.5,408.1,329z"/>
	<path opacity="0.1" enable-background="new    " d="M417.7,344.7c0,0,20.4,6.9,25.8,10.3S435.5,341.5,417.7,344.7z"/>
	<path opacity="0.1" enable-background="new    " d="M428.4,449.6c0,0,29,3.6,27.3,9.3C454,464.6,428.4,449.6,428.4,449.6z"/>
	<path opacity="0.1" enable-background="new    " d="M422.7,455.8c0,0,21.2,6.8,17.4,12.4S422.7,455.8,422.7,455.8z"/>
	<path opacity="0.1" enable-background="new    " d="M423.1,320.3c-11.6,2.3-23.2,4.2-34.8,6.1l-3,0.5c-6.4,1.1-12.8,2.1-19.3,2.1
	c-3.2,0-6.4-0.3-9.2-1.8c-0.6-0.3-1.2-0.7-1.7-1.1c-2-1.6-3.4-3.9-3.3-6.4c0-4.5,4.3-7.7,8-10.3c5.4-3.8,10.8-8.7,12.9-14.9
	c0.4-1.1,0.7-2.3,0.8-3.5c0.6-5.2-1.3-10.3-3.3-15.2c-2.2-5.3-5.2-10.9-9.7-14.1c-1.8-1.3-3.9-2.2-6.1-2.5
	c-6.8-0.9-13.2,3.9-20.1,3.7c-5.6-0.2-10.3-3.8-13.6-8c-2.4-3.1-4-7.2-7.6-9c-4-2-8.5-2.4-12.9-3.1c6.5-25.6,32.5-41,58.1-34.5
	c25.6,6.5,41,32.5,34.5,58.1c-2,7.8-5.9,15-11.4,20.8c0.1,0.2,0.2,0.5,0.2,0.7c0.4,1.2,0.9,2.5,1.4,3.7c0,0,9.3-3.7,12.6-1
	c0.2,0.2,0.4,0.4,0.6,0.6c0.1,0.1,0.2,0.3,0.2,0.4c2.2,4.5,3.2,7.9,5.3,10.8c0.2,0.3,0.5,0.6,0.8,0.9c2.6,2.8,7.9,6,7,6.9
	c-1,1,7.3,5.1,7.3,5.1S421.5,318,423.1,320.3z"/>
	<path fill="#945B79" d="M286.3,234.2c-4.3-5.6-3.8-13.4-2.3-20.3c1-4.3,2.4-8.7,5.2-12.1c2.8-3.4,7.2-5.8,11.6-5.3
	c2.6,0.3,4.9,1.7,7.3,2.6c10.9,4.3,24.3,0.7,31.6-8.4c1.7-2.1,3-4.4,5-6.2c2.2-1.9,4.8-3.2,7.6-3.9c12.2-3.1,24.8,3,35.3,10
	c8.9,6,17.4,13,23.3,22.1c5.3,8.2,8.2,17.8,8.4,27.6c0.3,15.5-6.3,31.2-2.5,46.3c3.7,14.9,18.2,26.3,33.6,26.5
	c-21.1,5.2-42.5,8.7-63.9,12.2c-6.4,1.1-12.8,2.1-19.3,2.1c-3.2,0-6.4-0.3-9.2-1.8s-5.1-4.3-5.1-7.5c0-4.5,4.3-7.7,8-10.3
	c6.4-4.6,12.8-10.6,13.7-18.4c0.6-5.2-1.3-10.4-3.3-15.2c-3.1-7.4-7.8-15.5-15.7-16.6c-6.8-0.9-13.2,3.9-20.1,3.7
	c-5.6-0.2-10.3-3.8-13.6-8c-2.4-3.1-4-7.2-7.6-9C305.3,239.9,293.4,243.3,286.3,234.2z"/>
	<path fill="#945B79" d="M410.2,205.8c9.2-6.4,11.8-18.8,6-28.4c0.3,0.3,0.5,0.7,0.7,1c6.8,9.5,4.6,22.7-4.9,29.5
	c-9.5,6.8-22.7,4.6-29.5-4.9c-0.1-0.2-0.2-0.4-0.4-0.5c-0.2-0.3-0.5-0.7-0.7-1.1C388.4,210.3,401,212.2,410.2,205.8z"/>
	<g opacity="0.1">
	<path d="M343.2,188.7c1.7-2.1,3-4.4,5-6.2c0.3-0.3,0.7-0.6,1-0.8c-1.6,0.7-3.1,1.6-4.4,2.8c-2,1.8-3.3,4.1-5,6.2
		c-1.7,2.1-3.7,3.9-5.9,5.4C337.5,194.3,340.7,191.8,343.2,188.7z"/>
		<path d="M390.1,323.4c-6.4,1.1-12.8,2.1-19.3,2.1c-3.2,0-6.4-0.3-9.2-1.8c-2.8-1.5-5.1-4.3-5-7.5c0-4.5,4.3-7.7,8-10.3
		c6.4-4.6,12.8-10.6,13.7-18.4c0.6-5.2-1.3-10.4-3.3-15.2c-3.1-7.4-7.8-15.5-15.7-16.6c-6.8-0.9-13.2,3.9-20.1,3.7
		c-5.6-0.2-10.3-3.8-13.6-8c-2.4-3.1-4-7.2-7.6-9c-9.1-4.5-21-1.1-28.1-10.3c-4.3-5.6-3.8-13.4-2.3-20.3c1-4.3,2.4-8.7,5.2-12.1
		c0.8-1,1.7-1.8,2.7-2.6c-2.4,1-4.4,2.5-6.1,4.5c-2.8,3.4-4.2,7.8-5.2,12.1c-1.6,6.9-2.1,14.7,2.3,20.3c7.1,9.1,19,5.7,28.1,10.3
		c3.7,1.8,5.2,5.9,7.6,9c3.4,4.2,8.1,7.8,13.6,8c6.9,0.3,13.3-4.6,20.1-3.7c7.9,1.1,12.6,9.2,15.7,16.6c2,4.8,3.9,10,3.3,15.2
		c-0.9,7.8-7.3,13.8-13.7,18.4c-3.7,2.6-8,5.8-8,10.3c0,3.2,2.3,6,5.1,7.5s6.1,1.8,9.2,1.8c6.5,0,12.9-1,19.3-2.1
		c21.4-3.5,42.8-7.1,63.9-12.2c-1.2,0-2.5-0.1-3.7-0.3C428.1,317.1,409.1,320.3,390.1,323.4z"/>
</g>
	<ellipse fill="#FFC1C7" cx="231.2" cy="425.2" rx="9.2" ry="5"/>
	<path opacity="0.3" fill="none" stroke="#000000" stroke-width="0.4222" stroke-miterlimit="5.6287" stroke-dasharray="6.7544" enable-background="new    " d="
	M383.7,50.1c-10.3-2.7-20.6-5.5-31.3-5.9s-21.7,1.6-30.3,7.8c-4.3,3.1-7.9,7.1-11.6,10.9c-19.4,20.6-41,38.9-64.5,54.6
	c-9.5,6.3-19.6,12.3-30.9,13.9c-11.3,1.6-24-2.3-29.8-12.1l3.5-1.8"/>
	<path fill="#514E7F" d="M474.4,35.3h-72.7c-2.9,0-5.2-2.3-5.2-5.2V19.8c0-2.9,2.3-5.2,5.2-5.2c0,0,0,0,0,0h72.7
	c2.9,0,5.2,2.3,5.2,5.2v10.4C479.6,33,477.3,35.3,474.4,35.3z M466.6,21.1c-2.2,0-3.9,1.7-3.9,3.9c0,2.2,1.7,3.9,3.9,3.9
	c2.1,0,3.9-1.7,3.9-3.9C470.5,22.8,468.8,21.1,466.6,21.1C466.6,21.1,466.6,21.1,466.6,21.1z M456.2,21.1c-2.2,0-3.9,1.7-3.9,3.9
	c0,2.2,1.7,3.9,3.9,3.9c2.2,0,3.9-1.7,3.9-3.9c0,0,0,0,0,0C460.1,22.8,458.4,21.1,456.2,21.1L456.2,21.1z M474.4,61.3h-72.7
	c-2.9,0-5.2-2.3-5.2-5.2V45.7c0-2.9,2.3-5.2,5.2-5.2h72.7c2.9,0,5.2,2.3,5.2,5.2v10.4C479.6,59,477.3,61.3,474.4,61.3z M466.6,47
	c-2.2,0-3.9,1.7-3.9,3.9c0,2.2,1.7,3.9,3.9,3.9s3.9-1.7,3.9-3.9c0,0,0,0,0,0C470.5,48.8,468.8,47,466.6,47
	C466.6,47,466.6,47,466.6,47z M456.2,47c-2.2,0-3.9,1.7-3.9,3.9c0,2.2,1.7,3.9,3.9,3.9s3.9-1.7,3.9-3.9c0,0,0,0,0,0
	C460.1,48.8,458.4,47,456.2,47L456.2,47z M474.4,87.3h-72.7c-2.9,0-5.2-2.3-5.2-5.2V71.7c0-2.9,2.3-5.2,5.2-5.2h72.7
	c2.9,0,5.2,2.3,5.2,5.2v10.4C479.6,85,477.3,87.3,474.4,87.3C474.4,87.3,474.4,87.3,474.4,87.3z M466.6,73c-2.2,0-3.9,1.7-3.9,3.9
	c0,2.2,1.7,3.9,3.9,3.9s3.9-1.7,3.9-3.9v0C470.5,74.8,468.8,73,466.6,73C466.6,73,466.6,73,466.6,73z M456.2,73
	c-2.2,0-3.9,1.7-3.9,3.9c0,2.2,1.7,3.9,3.9,3.9s3.9-1.7,3.9-3.9c0,0,0,0,0,0C460.1,74.8,458.4,73,456.2,73L456.2,73z"/>
	<path opacity="0.3" fill="none" stroke="#000000" stroke-width="0.4222" stroke-miterlimit="5.6287" stroke-dasharray="6.7544" enable-background="new    " d="
	M486.2,49.3c4.7-0.5,9.7-0.4,13.7,2.1c4.2,2.6,6.7,7.5,7.5,12.4c0.8,4.9,0.2,9.9-0.3,14.9l-3.2,26.7c-0.4,3.7-0.9,7.6,0.3,11.2
	c1.2,3.6,4.6,6.7,8.3,6.4"/>
	<path opacity="0.3" fill="none" stroke="#000000" stroke-width="0.4222" stroke-miterlimit="5.6287" stroke-dasharray="6.7544" enable-background="new    " d="
	M181.3,275.6c12,0.3,25.6,0,33.9-8.7c6.3-6.6,7.8-16.3,9.9-25.1c3.8-16,10.8-31.4,21.4-44.1s24.9-22.4,40.9-26.3
	c12.9-3.2,26.4-2.6,39.3-5.4c12.9-2.8,26.2-10.5,29.8-23.2"/>
	<path opacity="0.5" fill="#EE8127" enable-background="new    " d="M382.8,114.8l-32.4,11.8c-0.3,0.1-0.5,0.5-0.4,0.8
	c0,0.1,0.1,0.2,0.2,0.3l4.8,2.7c0.3,0.2,0.5,0.4,0.6,0.7l2.8,8.8c0,0.4,0.7,0.6,0.7,0.2l0.4-6.9c0.1-0.5,0.4-0.9,0.7-1.3l17.8-12.9
	c0.1-0.1,0.2-0.1,0.4,0c0.2,0.1,0.3,0.3,0.2,0.5c0,0,0,0.1-0.1,0.1L362.7,134c-0.3,0.4-0.6,0.8-0.7,1.3l-1.7,5.7
	c0,0.5,0.4,0.8,0.8,0.4l3.4-3c0.2-0.2,0.6-0.2,0.9,0c0,0,0,0,0,0l6.7,6.5c0.2,0.2,0.6,0.2,0.9,0c0.1-0.1,0.1-0.1,0.1-0.2l10.5-29.1
	c0.1-0.3,0-0.7-0.3-0.8C383,114.8,382.8,114.8,382.8,114.8L382.8,114.8z"/>
</svg>
